<svg version="1.2" xmlns="http://www.w3.org/2000/svg" viewBox="0 0 434 80" width="434" height="80">
	<title>agence-la-panthere-monochrome-svg</title>
	<style>
		.s0 { fill: #000000 } 
		.s1 { fill: #1d1d1b } 
	</style>
	<g id="409599fb-89aa-4ddd-9c19-604f11e9ffd0">
		<path id="Layer" fill-rule="evenodd" class="s0" d="m119.4 47q-0.5-1.3-0.5-3.7 0-2.3 1.6-13.7 1.6-11.5 1.6-18.4 0-1.6-0.2-4.5 4.1 0.3 5.1 2 0.6 1 0.7 1.9 0.2 0.9 0.2 2.8 0 1.9-1.8 14.4-1.7 12.6-1.8 17.9 0.3 0 1 0 11.7 0 17.5-1.7-0.4 3.2-2.2 4.9-1.7 1.8-4.4 1.8-0.8 0-4.7-0.4-3.9-0.3-7.6-0.3-3.7 0-7.4 0.7 0.7-2.4 2.9-3.7zm35.7-18q-1.5 2.7-2.4 5.6-0.8 2.8-0.8 5.4 0 2.6 1.1 4.5 1.2 1.8 3.4 1.8 3 0 5.7-3.3 2.6-3.4 4.1-8.1 1.4-4.8 1.4-8.8 0-4.1-0.3-6.7 1.3-0.1 1.6-0.1 4.6 0 4.6 4.8 0 1-1.3 8.3-1.3 7.4-1.3 11.8 0 4.4 1.7 7.8-3.4-0.7-5-3-1.5-2.3-1.5-6.6 0-0.8 0.2-3-1.4 5.2-5.1 8.3-3.7 3.2-7.3 3.2-3.5 0-5.7-2.7-2.2-2.7-2.2-7.4 0-4.8 1.8-9.3 1.7-4.5 5.3-7.8 3.5-3.4 8-3.4 1.9 0 4.1 0.8-3.2 0.8-5.8 3-2.7 2.2-4.3 4.9zm54.6-16.5l0.1 0.7q0 2.1-1.6 13.5-1.5 11.4-1.5 19 0 3.5 0.3 5.3-1.3 0.2-1.4 0.2-2.5 0-3.7-1.2-1.1-1.1-1.1-3.6 0-2.5 1.8-15.4 1.8-12.9 1.8-18.4 0-5.5-0.8-7.2 1.8 0.3 3.3 1.4 1.5 1.1 2.2 2.9 4.2-2.2 9.2-2.2 5.1 0 8 3.1 2.9 3.1 2.9 7.7 0 5.8-4.2 10.4-4.3 4.6-11.4 4.6-1.7 0-3-0.1l-0.2-1.8q3.7 0 6.4-1.1 2.7-1.1 4.1-2.8 2.7-3.5 2.7-8.2 0-3.3-2.1-5.6-2.1-2.2-6.2-2.2-2.4 0-5.6 1zm31.5 16.5q-1.6 2.7-2.4 5.6-0.9 2.8-0.9 5.4 0 2.6 1.2 4.5 1.2 1.8 3.3 1.8 3.1 0 5.7-3.3 2.7-3.4 4.1-8.1 1.5-4.8 1.5-8.8 0-4.1-0.4-6.7 1.3-0.1 1.7-0.1 4.6 0 4.6 4.8 0 1-1.3 8.3-1.3 7.4-1.3 11.8 0 4.4 1.6 7.8-3.4-0.7-4.9-3-1.6-2.3-1.6-6.6 0-0.8 0.3-3-1.5 5.2-5.2 8.3-3.7 3.2-7.2 3.2-3.6 0-5.8-2.7-2.2-2.7-2.2-7.4 0-4.8 1.8-9.3 1.8-4.5 5.3-7.8 3.6-3.4 8-3.4 1.9 0 4.2 0.8-3.2 0.8-5.9 3-2.7 2.2-4.2 4.9zm51.9-2.4q0 2.5-1.1 8.8-1 6.4-1 9.3 0 2.8 0.7 4.1 0.7 1.3 2.4 2.2-0.7 0-2 0-3.7 0-5.3-1.3-1.5-1.4-1.5-5 0-2 1.1-8.1 1.1-6.1 1.1-9 0-3.5-2.2-3.5-3.5 0-7.2 6.1-3.7 6.1-3.7 14.7 0 3.4 0.3 5.3-1.4 0.2-1.7 0.2-4.8 0-4.8-4.7 0-1.1 1.2-8.4 1.1-7.2 1.1-11.5 0-4.4-0.9-8 3.2 1.3 4.5 3.5 1.3 2.4 1.3 5.3 0 3-0.7 6.9 1.8-6.2 5.6-10.3 3.8-4.3 7.2-4.3 5.6 0 5.6 7.7zm26-6.1q0 2.3-0.9 3.2-0.9 0.8-2.5 0.8h-3.9q-0.3 1.5-1.2 6.8-1.8 10-1.8 15.2 0 5.1 0.8 6.8-3.1-1.1-4.5-3.4-1.2-2.3-1.2-5.6 0-3.4 0.3-6.3 0.5-2.9 1.2-6.9 0.8-4 1.1-6.4-3.1 0.5-6.1 1.8-0.1-0.9-0.1-1.6 0-2.6 1.7-3.5 1.8-0.9 5-0.9 0.4-4 0.4-6 0-2 0-3.2 0-1.2 0-1.7 2.5 0.4 3.8 2.2 1.4 1.8 1.4 4.9 0 1.7-0.3 4 4.7 0 6.7-1.6 0.1 0.8 0.1 1.4zm10.2 13q1.8-6.2 5.5-10.3 3.7-4.3 7-4.3 3.2 0 4.6 2 1.3 2 1.3 5.4 0 3.4-1 9.5-1.1 6.1-1.1 8.9 0 2.8 0.7 4.1 0.7 1.3 2.4 2.2-0.7 0-2 0-3.5 0-5.1-1.4-1.7-1.4-1.7-4.9 0-2 1.1-8.1 1.1-6.1 1.1-9 0-3.5-2.5-3.5-1.5 0-3.3 1.5-1.8 1.5-3.4 4.1-1.6 2.7-2.8 6.7-1.1 4.1-1.1 8 0 3.9 0.4 5.8-1.4 0.2-1.5 0.2-2.6 0-3.8-1.1-1.2-1.1-1.2-3.4 0-2.3 1-8.9 2.8-20.2 2.8-30.6 0-4.8-0.6-6.4 3.1 1.2 4.4 3.4 1.3 2.2 1.3 6.1 0 2.7-1.1 11.4-1 8.7-1.4 12.6zm48.6 10.2q-2.4 4.1-5.4 5.7-3 1.6-7 1.6-3.9 0-6.8-3.4-3-3.5-3-9.8 0-7.2 3.9-12.8 1.9-2.7 5-4.4 3-1.7 6.7-1.7 8.2 0 8.2 7.9 0 4.7-3.7 7.4-3.7 2.7-8.5 2.7-3.2 0-5.7-0.6-0.1 0.5-0.1 1.7 0 9.6 5.7 9.6 5.4 0 8.7-5.3 2 0.2 2 1.4zm-7.6-21.9q-3.2 0-5.5 3.7-2.3 3.7-3 8.8h1.5q2.9 0 5-0.8 2.1-0.8 3.3-2.1 2.1-2.5 2.1-5.7 0-1.8-0.8-2.8-0.9-1.1-2.6-1.1zm6.6-6.9q-0.1 0.6-0.6 1.1-0.5 0.5-1.2 0.7-1.9-2.5-5-4.8-3-2.4-6.2-3.4 0.1-2.8 2.6-4.5 2.9 1.2 5.9 4.5 3.1 3.4 4.5 6.4zm16 17.7q1.9-7 4.7-10.4 2.7-3.3 5.1-3.3 2.3 0 3.5 1.7 1.2 1.8 1.2 4.5 0 2.7-1.4 4.7-1.4 2-4.1 2-0.9 0-1.4-0.1 1.9-2.7 1.9-5.4 0-2-1.6-2-1.3 0-2.7 1.5-1.4 1.4-2.7 4-1.3 2.7-2.1 6.8-0.9 4.2-0.9 9 0 0.6 0.2 4.6-1.4 0.2-1.6 0.2-4.8 0-4.8-4.7 0-1.1 1.2-8.4 1.1-7.2 1.1-11.5 0-4.4-0.9-8 3.2 1.3 4.5 3.5 1.3 2.4 1.3 5.4 0 3.1-0.5 5.9zm39.6 11.1q-2.5 4.1-5.5 5.7-3 1.6-6.9 1.6-3.9 0-6.9-3.4-2.9-3.5-2.9-9.8 0-7.2 3.8-12.8 1.9-2.7 5-4.4 3.1-1.7 6.7-1.7 8.2 0 8.2 7.9 0 4.7-3.7 7.4-3.6 2.7-8.4 2.7-3.3 0-5.8-0.6-0.1 0.5-0.1 1.7 0 9.6 5.7 9.6 5.4 0 8.8-5.3 2 0.2 2 1.4zm-7.7-21.9q-3.2 0-5.5 3.7-2.3 3.7-3 8.8h1.5q2.9 0 5-0.8 2.1-0.8 3.3-2.1 2.1-2.5 2.1-5.7 0-1.8-0.8-2.8-0.9-1.1-2.6-1.1z"/>
	</g>
	<g id="97221fff-9f5f-45e5-b2fa-fe4d6ef25df3">
		<path id="Layer" fill-rule="evenodd" class="s1" d="m43.7 37q0.1 0.2 0.2 0.5 0 0.2 0.1 0.5 0 0.3 0.1 0.5 0 0.6 0 1.1 0.1 0.6 0 1.1 0 0.6-0.1 1.1-0.1 0.6-0.2 1.1 0 0.2-0.1 0.3-0.1 0.1-0.2 0.1-0.1 0.1-0.2 0.1-0.1 0.1-0.3 0.1 0 0 0 0-0.1 0-0.1 0 0 0-0.1 0 0 0 0 0-0.2-0.1-0.3-0.2-0.1-0.1-0.2-0.2-0.1-0.2-0.1-0.4 0-0.1 0.1-0.3 0.1-0.4 0.1-0.8 0.1-0.4 0.1-0.8 0-0.4 0-0.8 0-0.4 0-0.8-0.5 0.6-1 1-0.6 0.5-1.3 0.8-0.6 0.3-1.3 0.5-0.7 0.1-1.5 0.1-0.2 0-0.5 0-0.2 0-0.4 0-0.3-0.1-0.5-0.1-0.3-0.1-0.5-0.1-1.2-0.4-2.3-1.2-1-0.8-1.6-2-0.6-1.1-0.8-2.4-0.1-1.3 0.2-2.5c0.1-0.1 0.2-0.2 0.2-0.4q-0.3-0.1-0.6-0.2-0.3-0.2-0.5-0.3-0.3-0.2-0.6-0.3-0.2-0.2-0.5-0.3-0.2-0.2-0.3-0.6 0-0.3 0.1-0.5 0.2-0.3 0.5-0.4 0.3 0 0.6 0.1 0.8 0.5 1.6 0.9 0.9 0.5 1.7 0.8 0.9 0.3 1.8 0.5 0.9 0.3 1.8 0.4 0.4 0 0.7 0.1 0.4 0 0.7 0.1 0.3 0 0.7 0.1 0.3 0.1 0.6 0.2h0.2q0.6 0.1 1.1 0.4 0.6 0.3 1.1 0.7 0.5 0.3 0.9 0.8 0.4 0.5 0.7 1v0.1q0.1 0.2 0.2 0.5zm-4 2.5q0.4-0.2 0.7-0.5 0.3-0.3 0.6-0.6 0.3-0.3 0.5-0.7 0.2-0.4 0.3-0.8-0.1-0.2-0.3-0.4-0.2-0.2-0.4-0.4-0.2-0.2-0.4-0.3-0.2-0.2-0.5-0.3c-0.1 0.8-0.5 1.6-1.2 2.1-0.7 0.5-1.6 0.7-2.4 0.5-0.8-0.2-1.5-0.7-2-1.4-0.4-0.8-0.5-1.7-0.2-2.5q-0.3-0.1-0.5-0.2-0.2 0-0.4-0.1-0.3-0.1-0.5-0.2-0.2 0-0.5-0.1v0.1q-0.2 0.9-0.1 1.9 0.1 1 0.6 1.9 0.5 0.8 1.2 1.4 0.8 0.6 1.7 0.9 0.5 0.1 1 0.2 0.4 0 0.9 0 0.5-0.1 1-0.2 0.4-0.1 0.9-0.3zm-1.1-4.6q0 0 0 0 0 0 0.1 0zm0 0q-0.3-0.1-0.5-0.1-0.3-0.1-0.5-0.1-0.3 0-0.5-0.1-0.3 0-0.5 0l-0.7-0.1q0 0 0 0.1 0 0 0 0 0 0 0 0-0.1 0.1 0 0.1c-0.2 0.4-0.1 0.7 0.1 1.1 0.2 0.3 0.5 0.5 0.8 0.6 0.4 0.1 0.8 0.1 1.1-0.1 0.3-0.2 0.5-0.5 0.7-0.8q0-0.1 0-0.2 0-0.1 0-0.1 0-0.1 0-0.2 0 0 0-0.1zm30.4 0.9q-0.2 1.3-0.8 2.5-0.6 1.1-1.7 1.9-1 0.9-2.3 1.2-0.2 0.1-0.4 0.1-0.3 0.1-0.5 0.1-0.2 0.1-0.5 0.1-0.2 0-0.5 0-0.7 0-1.4-0.2-0.7-0.1-1.4-0.5-0.6-0.3-1.2-0.7-0.6-0.5-1-1.1 0 0.4-0.1 0.8 0 0.4 0.1 0.9 0 0.4 0.1 0.8 0 0.4 0.1 0.8 0.1 0.1 0 0.3 0 0.2-0.1 0.4-0.1 0.2-0.3 0.2-0.2 0.1-0.4 0.1-0.1 0-0.2 0-0.2 0-0.3-0.1-0.1-0.1-0.1-0.2-0.1-0.1-0.1-0.2-0.2-0.6-0.3-1.1 0-0.6-0.1-1.1 0-0.6 0-1.1 0-0.6 0.1-1.1 0-0.3 0.1-0.6 0-0.2 0.1-0.5 0.1-0.3 0.2-0.5 0.1-0.3 0.2-0.5v-0.1q0.3-0.5 0.7-1 0.4-0.5 0.9-0.8 0.5-0.4 1-0.7 0.6-0.3 1.2-0.4h0.1q0.4-0.1 0.7-0.2 0.3-0.1 0.7-0.2 0.3 0 0.6-0.1 0.4 0 0.7 0 1-0.2 1.9-0.4 0.9-0.2 1.7-0.5 0.9-0.3 1.7-0.8 0.9-0.4 1.7-0.9 0.2-0.2 0.5-0.1 0.4 0.1 0.5 0.4 0.2 0.2 0.2 0.5-0.1 0.3-0.3 0.5-0.3 0.2-0.6 0.4-0.2 0.1-0.5 0.3-0.3 0.1-0.5 0.3-0.3 0.1-0.6 0.2c0.1 0.2 0.1 0.3 0.1 0.4q0.4 1.2 0.3 2.5zm-3.5 3.1q0.8-0.6 1.2-1.4 0.5-0.9 0.6-1.9 0.1-0.9-0.1-1.9v-0.1q-0.3 0.1-0.5 0.2-0.2 0.1-0.4 0.1-0.3 0.1-0.5 0.2-0.2 0-0.5 0.1v0.1q0.2 0.6 0.1 1.3-0.2 0.7-0.6 1.3-0.4 0.5-1 0.8-0.6 0.3-1.3 0.3-0.5 0-1-0.1-0.4-0.2-0.8-0.4-0.4-0.3-0.7-0.7-0.3-0.4-0.4-0.9 0-0.1 0-0.1 0-0.1-0.1-0.1 0-0.1 0-0.1 0-0.1 0-0.1-0.2 0.1-0.5 0.3-0.2 0.1-0.4 0.3-0.2 0.2-0.4 0.4-0.1 0.2-0.3 0.4 0.2 0.4 0.4 0.8 0.2 0.4 0.5 0.7 0.2 0.3 0.6 0.6 0.3 0.3 0.7 0.5 0.4 0.2 0.9 0.3 0.4 0.2 0.9 0.2 0.5 0 1 0 0.5 0 0.9-0.2 0.9-0.3 1.7-0.9zm-2.5-4.3q-0.2 0-0.5 0-0.2 0.1-0.5 0.1-0.2 0-0.4 0.1-0.3 0-0.5 0.1-0.1 0.3 0 0.7 0.2 0.3 0.4 0.5 0.3 0.3 0.6 0.3 0.4 0.1 0.7 0 0.3-0.1 0.5-0.2 0.2-0.2 0.4-0.5 0.1-0.2 0.1-0.5 0-0.2 0-0.5 0 0 0-0.1-0.1 0-0.1 0 0 0 0 0 0-0.1 0-0.1l-0.7 0.1z"/>
		<path id="Layer" class="s1" d="m45.9 35.5q0 0.2-0.1 0.3-0.1 0.1-0.3 0.2-0.1 0.1-0.3 0.1-0.2 0-0.3-0.1-0.2 0-0.3-0.1-0.1-0.1-0.2-0.3 0-0.1 0-0.3c-0.2-2.1-2.6-2.6-4.1-2.7q-0.8-0.1-1.5-0.3-0.8-0.1-1.5-0.4-0.7-0.3-1.4-0.6-0.7-0.4-1.4-0.8-0.3-0.2-0.3-0.5-0.1-0.3 0.1-0.6 0.2-0.3 0.5-0.3 0.3-0.1 0.6 0.1 0.6 0.3 1.2 0.6 0.6 0.3 1.2 0.6 0.7 0.2 1.3 0.4 0.7 0.1 1.3 0.2c3.4 0.3 5.4 1.8 5.6 4.2q0 0.2-0.1 0.3zm10-0.1q0 0.1-0.1 0.3-0.1 0.1-0.2 0.2-0.1 0.1-0.2 0.2-0.2 0-0.3 0h-0.1q-0.1 0-0.3-0.1-0.1 0-0.2-0.2-0.1-0.1-0.2-0.2 0-0.2 0-0.3c0.1-2.5 2.2-4 5.5-4.3q0.7-0.1 1.3-0.2 0.7-0.2 1.3-0.4 0.7-0.2 1.3-0.5 0.6-0.4 1.2-0.7 0.2-0.2 0.6-0.1 0.3 0 0.5 0.3 0.2 0.3 0.1 0.6-0.1 0.3-0.3 0.5-0.7 0.4-1.4 0.8-0.7 0.3-1.4 0.6-0.8 0.3-1.5 0.4-0.8 0.2-1.6 0.3c-1.4 0.1-3.9 0.6-4 2.8zm-25.9-12.6q-0.3-0.3-0.2-0.6 0-0.4 0.3-0.6 0.2-0.2 0.6-0.1 0.3 0 0.5 0.3l3.4 4.2q0.3 0.2 0.2 0.6 0 0.3-0.3 0.5-0.2 0.2-0.6 0.2-0.3 0-0.5-0.3zm5.5-2.1q-0.1-0.3 0-0.6 0.2-0.3 0.5-0.4 0.3-0.1 0.6 0 0.3 0.2 0.4 0.5l1.6 3.9q0 0.2 0 0.4 0 0.2-0.1 0.4-0.2 0.1-0.3 0.2-0.2 0.1-0.4 0.1-0.1 0-0.2 0-0.2-0.1-0.3-0.1-0.1-0.1-0.1-0.2-0.1-0.1-0.2-0.2zm5.5 4q-0.1-0.1-0.2-0.2-0.1-0.1-0.2-0.3-0.1-0.2 0-0.3l0.2-3.5q0-0.1 0.1-0.3 0.1-0.1 0.2-0.2 0.1-0.1 0.3-0.2 0.1 0 0.3 0 0.2 0 0.3 0.1 0.1 0.1 0.3 0.2 0.1 0.1 0.1 0.3 0.1 0.1 0 0.3l-0.2 3.4q0 0.1-0.1 0.3-0.1 0.1-0.2 0.2-0.1 0.1-0.2 0.2-0.2 0-0.3 0-0.2 0-0.4 0z"/>
		<path id="Layer" fill-rule="evenodd" class="s1" d="m98.7 52.6q0.3 0.1 0.5 0.4 0.1 0.3 0 0.6-0.1 0.3-0.4 0.5-0.3 0.1-0.6 0.1c-4.4-1.4-16.2-1-22.8-0.7h-0.3l-0.7 0.7c8.3 0.2 13.9 0.7 16.7 1.7q0.3 0.2 0.4 0.5 0.2 0.3 0.1 0.6-0.1 0.3-0.4 0.4-0.3 0.2-0.6 0.1c-2.8-1.1-9-1.6-17.9-1.7q-0.6 0.5-1.2 1c7 0.4 18.3 1.3 22.7 3.2q0.3 0.2 0.4 0.5 0.1 0.2-0.1 0.5-0.1 0.3-0.4 0.5-0.3 0.1-0.6 0c-4.5-2.1-17.6-2.9-24.1-3.3l-0.3 0.3-0.9 0.6c6.9 0.6 11.6 1.5 14 2.5q0.3 0.2 0.5 0.5 0.1 0.3 0 0.6-0.2 0.4-0.5 0.5-0.3 0.1-0.6-0.1c-2.3-1-7-1.8-13.7-2.4q0 0.7-0.1 1.5 0 0.7-0.1 1.4-0.1 0.8-0.2 1.5-0.1 0.7-0.3 1.4c-1.8 4.7-4.2 5.8-7 6q-0.1 0.3-0.3 0.6-0.2 0.3-0.4 0.5-0.2 0.3-0.4 0.5-0.3 0.2-0.5 0.4 0.6 0.5 1.1 1.1 0.5 0.5 0.9 1.1 0.5 0.6 0.9 1.3 0.4 0.6 0.7 1.3 0.2 0.3 0 0.6-0.1 0.3-0.4 0.4-0.3 0.2-0.6 0-0.3-0.1-0.5-0.4c-0.3-0.8-1.1-2.2-3.5-4.5q-0.3 0.1-0.5 0.2-0.3 0.1-0.6 0.2-0.2 0.2-0.5 0.2-0.3 0.1-0.6 0.2 0.2 0.5 0.4 0.9 0.1 0.5 0.3 0.9 0.1 0.5 0.2 1 0.1 0.4 0.1 0.9 0 0.2 0 0.3-0.1 0.2-0.2 0.3-0.1 0.1-0.3 0.2-0.1 0.1-0.3 0.1-0.1 0-0.3-0.1-0.1-0.1-0.2-0.2-0.1-0.1-0.2-0.2-0.1-0.1-0.1-0.3 0-0.4-0.1-0.9-0.1-0.4-0.2-0.8-0.2-0.5-0.3-0.9-0.2-0.4-0.4-0.8-0.8 0.1-1.7 0.2-0.9 0.1-1.8 0.1-0.9 0-1.7-0.1-0.9-0.1-1.8-0.2-0.2 0.4-0.3 0.8-0.2 0.4-0.3 0.9-0.1 0.4-0.2 0.8-0.1 0.5-0.2 0.9 0 0.2 0 0.3-0.1 0.1-0.2 0.2-0.1 0.1-0.3 0.2-0.1 0.1-0.3 0.1-0.1 0-0.3-0.1-0.1-0.1-0.2-0.2-0.1-0.1-0.2-0.3-0.1-0.1 0-0.3 0-0.5 0.1-0.9 0.1-0.5 0.2-1 0.1-0.4 0.3-0.9 0.2-0.4 0.3-0.9-0.2-0.1-0.5-0.1-0.3-0.1-0.5-0.2-0.3-0.1-0.6-0.3-0.2-0.1-0.5-0.2c-2.4 2.3-3.3 3.7-3.5 4.5q-0.2 0.3-0.5 0.4-0.3 0.2-0.6 0.1-0.3-0.2-0.4-0.5-0.2-0.3-0.1-0.6 0.4-0.7 0.8-1.3 0.4-0.7 0.8-1.3 0.5-0.6 1-1.1 0.5-0.6 1.1-1.1-0.3-0.2-0.5-0.4-0.2-0.2-0.4-0.5-0.2-0.2-0.4-0.5-0.2-0.3-0.3-0.5c-2.8-0.3-5.2-1.4-7-6.1q-0.2-0.7-0.3-1.4-0.2-0.7-0.3-1.5-0.1-0.7-0.1-1.5 0-0.7 0-1.5c-6.8 0.7-11.5 1.5-13.7 2.5q-0.3 0.1-0.6 0-0.3-0.2-0.4-0.4-0.1-0.3 0-0.6 0.1-0.3 0.3-0.5c2.4-1 7-1.9 13.8-2.5l-0.1-0.1-1.1-0.8c-6.5 0.4-19.4 1.2-23.9 3.2q-0.3 0.1-0.6 0-0.3-0.1-0.4-0.4-0.1-0.3 0-0.6 0.1-0.3 0.4-0.5c4.3-1.9 15.6-2.8 22.6-3.2q-0.6-0.5-1.2-0.9c-8.9 0-15 0.6-17.8 1.6q-0.3 0.1-0.6 0-0.3-0.2-0.5-0.5-0.1-0.3 0.1-0.6 0.1-0.3 0.4-0.4c2.8-1 8.5-1.6 16.7-1.7l-0.7-0.8h-0.2c-6.7-0.3-18.4-0.7-22.8 0.7q-0.4 0.1-0.7 0-0.3-0.2-0.4-0.5-0.1-0.3 0.1-0.6 0.1-0.3 0.5-0.4c4.2-1.3 14-1.2 22.1-0.9-5.4-6.7-5.4-13.3-4.5-16.4 0.8-2.3 1.9-8.1 0.5-10.4q-0.1-0.2-0.3-0.3-0.1-0.2-0.3-0.3-0.1-0.1-0.3-0.1-0.2-0.1-0.4-0.1c-1.9-0.3-2.2-2.2-2.5-3.8q0-0.2 0-0.4 0-0.3-0.1-0.5 0-0.2 0-0.4-0.1-0.2-0.1-0.4-0.1-0.2-0.3-0.4-0.1-0.2-0.3-0.4-0.1-0.2-0.3-0.4-0.2-0.1-0.4-0.3-0.6-0.4-1.1-1-0.5-0.5-0.9-1.1-0.4-0.5-0.8-1.2-0.4-0.6-0.6-1.2c-1.7-4.3 0.5-6.3 0.6-6.4q0.1 0 0.1-0.1 0.1 0 0.1 0 0 0 0.1 0 0 0 0-0.1h0.2q0.7-0.1 1.3-0.2 0.7 0 1.4 0.1 0.6 0.1 1.3 0.3 0.6 0.3 1.2 0.6 0.3 0.2 0.7 0.4 0.4 0.2 0.8 0.3 0.3 0.2 0.7 0.4 0.4 0.1 0.7 0.3 1.1 0.5 2.3 0.7 1.1 0.2 2.3 0 1.1-0.2 2.2-0.8 1-0.5 1.9-1.3c4.8-4.7 8.1-6 21.5-6 13.3 0 16.7 1.3 21.6 6q0.8 0.8 1.9 1.3 1 0.6 2.2 0.8 1.1 0.2 2.3 0 1.2-0.2 2.2-0.7c1.3-0.6 2.2-1 3-1.4q0.5-0.3 1.2-0.6 0.6-0.2 1.3-0.3 0.6-0.1 1.3-0.1 0.7 0.1 1.3 0.2h0.2q0 0.1 0.1 0.1 0 0 0.1 0 0 0 0 0 0.1 0.1 0.1 0.1c0.1 0.1 2.4 2.1 0.7 6.4q-0.3 0.6-0.7 1.2-0.3 0.7-0.7 1.2-0.5 0.6-1 1.1-0.5 0.6-1 1-0.2 0.2-0.4 0.3-0.2 0.2-0.4 0.4-0.1 0.2-0.3 0.4-0.1 0.2-0.3 0.4 0 0.2-0.1 0.4 0 0.2-0.1 0.4 0 0.2-0.1 0.4 0 0.2 0 0.4c-0.3 1.6-0.6 3.6-2.5 3.8q-0.2 0-0.4 0.1-0.2 0.1-0.4 0.2-0.1 0.1-0.3 0.2-0.1 0.2-0.2 0.3c-1.5 2.3-0.3 8.1 0.4 10.5 1 3 1 9.6-4.4 16.4 8-0.4 17.9-0.5 22.1 0.8zm-45.2 20.4c0 0 0.4 0.7 0.9 1.7q0.5-0.1 1.1-0.3 0.5-0.2 1-0.5 0.5-0.3 0.9-0.6 0.5-0.3 0.9-0.7h-2.7q-0.8 0-1.7-0.3-0.8-0.2-1.6-0.6-0.7-0.5-1.3-1.1-0.6-0.6-1.1-1.4-0.4 0.8-1 1.4-0.6 0.6-1.3 1.1-0.8 0.4-1.6 0.6-0.8 0.3-1.7 0.3h-2.6q0.4 0.4 0.8 0.7 0.5 0.4 0.9 0.6 0.5 0.3 1.1 0.5 0.5 0.2 1 0.3c0.5-1 1-1.7 1-1.8q0.1-0.3 0.5-0.3 0.3-0.1 0.6 0 0.3 0.2 0.3 0.5 0.1 0.4 0 0.6c0 0.1-0.3 0.6-0.7 1.3q0.7 0.1 1.4 0.2 0.7 0 1.4 0 0.7 0 1.4 0 0.7-0.1 1.4-0.2c-0.3-0.5-0.5-1-0.7-1.3q-0.2-0.2-0.1-0.6 0.1-0.3 0.4-0.5 0.3-0.1 0.6 0 0.3 0 0.5 0.3zm19.3-19.3l-2.5 0.1h-0.1q-0.3 0.1-0.5-0.2-0.3-0.2-0.3-0.5 0-0.4 0.2-0.6 0.2-0.3 0.6-0.3c0 0 1.7-0.1 4.3-0.2 5.8-6.7 6-13.2 5.1-16.1-0.1-0.1-2.6-8.2-0.3-11.7q0.2-0.4 0.5-0.6 0.2-0.3 0.5-0.5 0.4-0.2 0.7-0.3 0.4-0.2 0.7-0.2c0.7-0.1 0.9-1 1.1-2.5q0-0.2 0.1-0.5 0-0.2 0.1-0.5 0.1-0.2 0.1-0.5 0.1-0.2 0.2-0.4 0.1-0.4 0.3-0.6 0.2-0.3 0.4-0.6 0.3-0.3 0.5-0.5 0.3-0.2 0.5-0.4 0.5-0.4 1-0.9 0.4-0.4 0.8-0.9 0.4-0.5 0.7-1.1 0.3-0.5 0.5-1.1c1.1-2.5 0.3-3.9-0.1-4.4q-0.3 0-0.6 0-0.2 0-0.5 0.1-0.3 0.1-0.6 0.2-0.2 0.1-0.5 0.3c-0.1 0.1-8.1 5.9-11.6 5.9h-0.5c3.2 2.3 5.1 5.3 5.1 8.2q0 0.3-0.2 0.6-0.2 0.2-0.6 0.2-0.3 0-0.5-0.2-0.3-0.3-0.3-0.6c0-3.1-2.8-6.3-7.1-8.5q-0.6-0.1-1.3-0.2-0.6-0.2-1.2-0.4-0.6-0.2-1.2-0.4-0.6-0.3-1.2-0.6-0.2-0.1-0.3-0.5-0.1-0.3 0-0.6 0.2-0.3 0.5-0.3 0.3-0.1 0.6 0 1 0.5 2 0.8 1 0.4 2 0.6 1 0.2 2.1 0.3 1 0.1 2.1 0c1.3 0 3.9-1.3 6.2-2.7q-0.4 0.2-0.8 0.3-0.5 0.1-1 0.2-0.4 0.1-0.9 0.2-0.5 0-1 0-0.8 0-1.7-0.2-0.8-0.1-1.6-0.5-0.8-0.3-1.5-0.8-0.8-0.5-1.4-1.1c-4.3-4.1-6.9-5.6-20.4-5.6-13.5 0-16.2 1.5-20.5 5.6q-0.9 1-2.1 1.6-1.2 0.6-2.6 0.9-1.3 0.2-2.7 0.1-1.3-0.2-2.6-0.8c2.4 1.5 5 2.8 6.3 2.8q1.1 0 2.1 0 1.1-0.1 2.1-0.3 1-0.3 2-0.6 1-0.3 2-0.8 0.3-0.2 0.6-0.1 0.3 0.1 0.5 0.4 0.1 0.3 0.1 0.6-0.1 0.3-0.4 0.5-0.6 0.3-1.2 0.6-0.6 0.2-1.2 0.4-0.6 0.2-1.2 0.4-0.6 0.1-1.3 0.2c-4.3 2.1-7.1 5.4-7.1 8.5q0 0.3-0.2 0.5-0.3 0.3-0.6 0.3-0.3 0-0.6-0.3-0.2-0.2-0.2-0.5c0-2.9 1.9-5.9 5.1-8.2h-0.4c-3.5 0-11.5-5.9-11.6-5.9q-0.2-0.2-0.5-0.3-0.3-0.2-0.5-0.2-0.3-0.1-0.6-0.1-0.3-0.1-0.6 0c-0.4 0.4-1.2 1.8-0.1 4.4q0.2 0.5 0.5 1.1 0.3 0.5 0.7 1 0.4 0.5 0.8 1 0.5 0.4 1 0.8 0.3 0.2 0.5 0.5 0.3 0.2 0.5 0.5 0.2 0.2 0.4 0.5 0.2 0.3 0.3 0.6 0.1 0.2 0.2 0.5 0.1 0.2 0.1 0.5 0.1 0.2 0.1 0.5 0.1 0.2 0.1 0.5c0.2 1.4 0.4 2.4 1.1 2.5q0.3 0 0.7 0.1 0.3 0.2 0.6 0.4 0.3 0.2 0.6 0.4 0.3 0.3 0.4 0.6c2.3 3.5-0.2 11.7-0.2 11.7-0.9 3-0.8 9.4 5.1 16.1 2.6 0.1 4.1 0.3 4.3 0.3q0.3 0 0.5 0.2 0.3 0.3 0.3 0.6-0.1 0.3-0.3 0.6-0.2 0.2-0.6 0.2l-2.6-0.2q0.4 0.4 0.9 0.8 0 0 0 0 0 0 0.1 0 0 0 0 0.1 0 0 0 0c0.9 0.8 1.8 1.5 2.7 2.2h1c-0.1-1.9-0.5-3.5-1.1-4.1q-0.2-0.2-0.3-0.5 0-0.4 0.2-0.6 0.2-0.3 0.6-0.3c0.2 0 0.4 0 0.6 0.1 1.1 0.9 1.5 2.8 1.7 5.2h0.7q0.3 0 0.6 0.2 0.2 0.3 0.2 0.6 0 0.3-0.2 0.6-0.3 0.2-0.6 0.2h-0.6v0.8h0.1q0.4 0 0.6 0.2 0.3 0.2 0.3 0.5 0 0.4-0.2 0.6-0.2 0.3-0.5 0.3h-0.2q-0.1 0.7 0 1.4 0 0.7 0.1 1.4 0.1 0.6 0.2 1.3 0.1 0.7 0.3 1.4c1.9 5.1 4.3 5.1 8.3 5h1.7q1 0 1.9-0.4 0.9-0.4 1.6-1.1 0.6-0.6 1-1.5 0.4-0.9 0.4-1.9-0.1-0.1-0.3-0.2-0.2-0.1-0.3-0.2-0.2-0.1-0.3-0.2-0.2-0.1-0.3-0.2c-1.2-0.7-2.7-1.6-2.1-3 0.2-0.5 0.1-0.7-1.8-2l-0.7-0.4q-0.3-0.2-0.5-0.4-0.3-0.3-0.5-0.5-0.1-0.3-0.3-0.6-0.1-0.4-0.1-0.7 0-0.3 0.1-0.5 0.1-0.3 0.2-0.5 0.2-0.2 0.3-0.4 0.2-0.2 0.4-0.3 0.3-0.2 0.6-0.1 0.3 0.1 0.5 0.3 0.2 0.3 0.1 0.6 0 0.3-0.3 0.5c-0.1 0.1-0.3 0.3-0.3 0.4 0 0.2 0.2 0.5 0.7 0.8l0.7 0.5c1.7 1.2 3.1 2.1 2.4 3.9q0.1 0.2 0.3 0.3 0.2 0.1 0.4 0.3 0.1 0.1 0.3 0.2 0.2 0.1 0.4 0.2 0.2 0.1 0.3 0.2 0.2 0.1 0.3 0.2 0.2 0.1 0.3 0.2 0.2 0.1 0.3 0.3 0.2-0.2 0.3-0.3 0.2-0.1 0.3-0.2 0.2-0.1 0.3-0.2 0.2-0.1 0.3-0.2c0.5-0.2 1.4-0.8 1.5-1-0.8-1.7 0.6-2.7 2.3-3.9l0.7-0.4c0.5-0.4 0.7-0.7 0.7-0.9 0-0.1-0.2-0.3-0.3-0.4q-0.1 0-0.2-0.2-0.1-0.1-0.1-0.2 0-0.2 0-0.3 0-0.2 0.1-0.3 0.1-0.2 0.2-0.2 0.1-0.1 0.3-0.2 0.1 0 0.3 0 0.1 0.1 0.3 0.1 0.2 0.2 0.4 0.4 0.2 0.2 0.3 0.4 0.1 0.2 0.2 0.5 0.1 0.2 0.1 0.5 0 0.3-0.1 0.6-0.1 0.3-0.3 0.6-0.2 0.3-0.5 0.5-0.2 0.3-0.5 0.4l-0.7 0.5c-1.8 1.2-2 1.5-1.8 1.9 0.6 1.4-1 2.3-2 3q-0.2 0.1-0.4 0.2-0.1 0.1-0.3 0.2-0.2 0.2-0.3 0.3-0.2 0.1-0.3 0.2 0 1 0.4 1.9 0.4 0.9 1.1 1.5 0.6 0.7 1.5 1.1 0.9 0.3 1.9 0.3h4c2.7-0.1 4.5-0.9 6-5q0.2-0.6 0.3-1.3 0.1-0.7 0.2-1.4 0.1-0.7 0.1-1.3 0-0.7 0-1.4h-0.2q-0.2 0-0.3-0.1-0.1-0.1-0.2-0.2-0.1-0.1-0.2-0.3 0-0.1 0-0.3 0-0.1 0.1-0.3 0-0.1 0.2-0.2 0.1-0.1 0.2-0.2 0.2 0 0.3 0h0.2v-0.8h-0.6q-0.1 0-0.3-0.1-0.1 0-0.2-0.2-0.1-0.1-0.2-0.2-0.1-0.2-0.1-0.3 0-0.2 0.1-0.4 0.1-0.1 0.2-0.2 0.1-0.1 0.3-0.2 0.1 0 0.3 0h0.6c0.2-2.4 0.7-4.3 1.8-5.2q0.3-0.2 0.6-0.2 0.3 0.1 0.5 0.3 0.2 0.3 0.2 0.6-0.1 0.3-0.3 0.6c-0.7 0.5-1 2.1-1.2 4h0.9c1-0.7 2-1.4 2.9-2.2l0.1-0.1c0.3-0.2 0.6-0.5 0.8-0.7z"/>
		<path id="Layer" class="s1" d="m65.8 27.3q-0.2 0-0.4-0.1-0.2-0.2-0.3-0.4-0.1-0.2-0.1-0.4 0.1-0.2 0.2-0.4l3.4-4.2q0.2-0.3 0.6-0.3 0.3-0.1 0.6 0.1 0.2 0.2 0.3 0.6 0 0.3-0.2 0.6l-3.5 4.2q0 0.1-0.1 0.1 0 0.1-0.1 0.1-0.1 0.1-0.2 0.1-0.1 0-0.2 0zm-4.2-2.3q-0.2-0.2-0.2-0.3-0.1-0.2-0.1-0.3 0-0.2 0.1-0.4l1.5-3.9q0.1-0.3 0.4-0.5 0.3-0.1 0.6 0 0.3 0.1 0.5 0.4 0.1 0.4 0 0.7l-1.5 3.9q-0.1 0.1-0.1 0.2-0.1 0.1-0.2 0.2-0.1 0.1-0.2 0.1-0.1 0-0.3 0 0 0 0 0-0.1 0.1-0.1 0.1 0 0-0.1-0.1 0 0-0.1 0-0.1 0-0.2-0.1zm-3.4-0.2q-0.1-0.1-0.3-0.2-0.1-0.1-0.1-0.2-0.1-0.2-0.1-0.3l-0.3-3.5q0-0.3 0.2-0.6 0.2-0.2 0.5-0.2 0.4-0.1 0.6 0.2 0.3 0.2 0.3 0.5l0.3 3.4q0 0.2-0.1 0.3 0 0.2-0.1 0.3-0.1 0.1-0.3 0.2-0.1 0.1-0.3 0.1-0.1 0-0.3 0z"/>
		<path id="Layer" class="s1" d="m37.2 63.2c-0.7 0-1.2-0.5-1.2-1.1 0-0.7 0.5-1.2 1.2-1.2 0.6 0 1.1 0.5 1.1 1.2 0 0.6-0.5 1.1-1.1 1.1z"/>
		<path id="Layer" class="s1" d="m37.5 67c-0.6 0-1.1-0.5-1.1-1.1 0-0.6 0.5-1.1 1.1-1.1 0.7 0 1.2 0.5 1.2 1.1 0 0.6-0.5 1.1-1.2 1.1z"/>
		<path id="Layer" class="s1" d="m40.5 69.6c-0.6 0-1.2-0.5-1.2-1.2 0-0.6 0.6-1.1 1.2-1.1 0.6 0 1.1 0.5 1.1 1.1 0 0.7-0.5 1.2-1.1 1.2z"/>
		<path id="Layer" class="s1" d="m41.5 65.6c-0.7 0-1.2-0.5-1.2-1.1 0-0.6 0.5-1.1 1.2-1.1 0.6 0 1.1 0.5 1.1 1.1 0 0.6-0.5 1.1-1.1 1.1z"/>
		<path id="Layer" class="s1" d="m44.6 67.6c-0.6 0-1.1-0.5-1.1-1.1 0-0.6 0.5-1.2 1.1-1.2 0.6 0 1.1 0.6 1.1 1.2 0 0.6-0.5 1.1-1.1 1.1z"/>
		<path id="Layer" class="s1" d="m62.7 63.2c-0.6 0-1.1-0.5-1.1-1.1 0-0.7 0.5-1.2 1.1-1.2 0.6 0 1.1 0.5 1.1 1.2 0 0.6-0.5 1.1-1.1 1.1z"/>
		<path id="Layer" class="s1" d="m62.3 67c-0.6 0-1.1-0.5-1.1-1.1 0-0.6 0.5-1.1 1.1-1.1 0.7 0 1.2 0.5 1.2 1.1 0 0.6-0.5 1.1-1.2 1.1z"/>
		<path id="Layer" class="s1" d="m59.4 69.6c-0.6 0-1.2-0.5-1.2-1.2 0-0.6 0.6-1.1 1.2-1.1 0.6 0 1.1 0.5 1.1 1.1 0 0.7-0.5 1.2-1.1 1.2z"/>
		<path id="Layer" class="s1" d="m58.4 65.6c-0.6 0-1.1-0.5-1.1-1.1 0-0.6 0.5-1.1 1.1-1.1 0.6 0 1.1 0.5 1.1 1.1 0 0.6-0.5 1.1-1.1 1.1z"/>
		<path id="Layer" class="s1" d="m55.2 67.6c-0.6 0-1.1-0.5-1.1-1.1 0-0.6 0.5-1.2 1.1-1.2 0.7 0 1.2 0.6 1.2 1.2 0 0.6-0.5 1.1-1.2 1.1z"/>
		<path id="Layer" class="s1" d="m54 43.5q0.2 0.1 0.3 0.2 0 0.1 0.1 0.3 0 0.1 0 0.3-0.1 1-0.5 2.1-0.3 1-0.8 1.9-0.5 1-1.2 1.8-0.7 0.8-1.5 1.5-0.1 0.1-0.1 0.1-0.1 0.1-0.1 0.1-0.1 0-0.2 0 0 0-0.1 0-0.1 0-0.1 0-0.1 0-0.2 0 0 0-0.1-0.1-0.1 0-0.1-0.1-0.8-0.7-1.5-1.5-0.7-0.8-1.2-1.8-0.5-0.9-0.8-1.9-0.4-1.1-0.5-2.1 0-0.4 0.2-0.6 0.2-0.3 0.5-0.3 0.3 0 0.6 0.2 0.3 0.2 0.3 0.5 0.1 0.9 0.3 1.7 0.3 0.7 0.7 1.5 0.3 0.7 0.8 1.4 0.5 0.7 1.1 1.2 0.6-0.5 1.1-1.2 0.5-0.7 0.9-1.4 0.4-0.7 0.6-1.5 0.3-0.8 0.4-1.7 0-0.1 0.1-0.3 0-0.1 0.2-0.2 0.1-0.1 0.2-0.2 0.2 0 0.4 0 0.1 0 0.2 0.1zm-14.2 3q0.1 0.2 0.2 0.3 0 0.2 0 0.3 0 0.2-0.1 0.4-0.4 0.6-0.9 1.3c-1.7 2.4-2.7 4.3-0.7 6.5q0.2 0.3 0.2 0.6-0.1 0.3-0.3 0.5-0.2 0.2-0.5 0.2-0.3 0-0.5-0.2c-3.1-3.4-0.9-6.5 0.5-8.6q0.5-0.6 0.8-1.2 0.1-0.1 0.2-0.2 0.1-0.1 0.3-0.2 0.1 0 0.3 0 0.1 0 0.3 0.1 0.1 0.1 0.2 0.2zm22.4 1.2c1.4 2.2 3.6 5.3 0.6 8.6q-0.3 0.3-0.6 0.4-0.4 0-0.7-0.2-0.2-0.3-0.2-0.6 0-0.4 0.3-0.6c2-2.2 1-4.1-0.7-6.6q-0.5-0.7-0.9-1.3-0.1-0.3 0-0.6 0-0.3 0.3-0.5 0.3-0.2 0.6-0.1 0.4 0.1 0.5 0.4c0.3 0.4 0.5 0.8 0.8 1.1zm-21.1 10.1q0 0.5 0.2 0.9 0.2 0.5 0.5 0.8 0.3 0.4 0.7 0.6 0.3 0.2 0.4 0.5 0.1 0.4-0.1 0.6-0.2 0.3-0.5 0.4-0.3 0.1-0.6-0.1-0.6-0.3-1.1-0.9-0.5-0.6-0.8-1.3-0.3-0.7-0.3-1.5-0.1-0.7 0.2-1.4 0.1-0.4 0.4-0.5 0.3-0.2 0.6-0.1 0.3 0.1 0.4 0.4 0.2 0.3 0.1 0.7-0.1 0.4-0.1 0.9zm17 3.7q-0.3 0.1-0.6 0.1-0.3-0.1-0.5-0.4-0.1-0.3-0.1-0.6 0.1-0.4 0.4-0.5 0.4-0.3 0.8-0.6 0.3-0.4 0.5-0.8 0.1-0.5 0.2-0.9 0-0.5-0.2-1-0.1-0.3 0.1-0.6 0.2-0.3 0.5-0.4 0.3-0.1 0.6 0.1 0.3 0.1 0.4 0.4 0.2 0.8 0.2 1.5 0 0.8-0.3 1.5-0.3 0.7-0.8 1.3-0.5 0.5-1.2 0.9zm-5.1-4.4q0.2-0.3 0.6-0.3 0.3 0 0.6 0.2 0.2 0.2 0.2 0.5 0.1 0.4-0.1 0.6-0.9 1-2 1.5-1.1 0.5-2.4 0.5-1.2 0-2.4-0.5-1.1-0.5-1.9-1.5-0.2-0.2-0.2-0.6 0-0.3 0.3-0.5 0.2-0.2 0.6-0.2 0.3 0 0.5 0.2 0.6 0.7 1.4 1.1 0.8 0.4 1.7 0.4 0.9 0 1.7-0.4 0.8-0.4 1.4-1.1zm-19.2-9.6q0 0.3-0.2 0.6-0.2 0.2-0.6 0.2-0.3 0-0.5-0.2-0.3-0.3-0.3-0.6c0-0.8-1.2-3.1-4-4.7q-0.3-0.1-0.5-0.5-0.1-0.3 0.1-0.6 0.2-0.3 0.5-0.4 0.4-0.1 0.6 0.1c3.1 1.7 4.9 4.4 4.9 6.1zm38.4-5.5q0 0.2-0.1 0.3 0 0.2-0.1 0.3-0.1 0.1-0.3 0.2c-2.8 1.6-4 3.9-4 4.7q0 0.3-0.3 0.6-0.2 0.2-0.5 0.2-0.4 0-0.6-0.2-0.2-0.3-0.2-0.6c0-1.7 1.8-4.4 4.9-6.1q0.1-0.1 0.3-0.1 0.2 0 0.3 0 0.2 0.1 0.3 0.2 0.1 0.1 0.2 0.2 0.1 0.2 0.1 0.3z"/>
	</g>
	<g id="54c8ca41-f910-4170-8f82-6d26474b6f31">
		<path id="Layer" fill-rule="evenodd" class="s0" d="m122.8 61.3l-0.9-2.5h-3.8l-1 2.5h-0.6l3.1-7.8h0.7l3.2 7.8zm-4.6-3h3.4l-1.4-3.4-0.3-0.9-0.3 0.8zm15.4-0.8h3.2v3.9h-0.4l-0.1-1.4q-0.3 0.7-1 1.1-0.7 0.4-1.7 0.4-1 0-1.8-0.5-0.8-0.5-1.3-1.4-0.4-0.9-0.4-2.2 0-1.2 0.4-2.1 0.5-0.9 1.3-1.4 0.8-0.5 1.9-0.5 1.2 0 1.9 0.5 0.8 0.4 1.2 1.4l-0.6 0.3q-0.2-0.8-0.9-1.2-0.6-0.5-1.6-0.5-0.9 0-1.6 0.5-0.6 0.4-1 1.2-0.4 0.8-0.4 1.8 0 1.7 0.8 2.6 0.8 0.9 2.2 0.9 0.8 0 1.4-0.3 0.6-0.4 0.9-0.9 0.3-0.6 0.3-1.2v-0.4h-2.7zm11.9 3.3h4.9v0.5h-5.5v-7.8h5.4v0.5h-4.8v3h3.8v0.6h-3.8zm18.7-7.3v7.8h-0.8l-4.1-6.1-0.6-1.1v1 6.2h-0.6v-7.8h0.8l4.1 6.1 0.6 1.1v-1-6.2zm14.6 5.9q-0.3 1-1.1 1.5-0.9 0.6-2 0.6-1.1 0-1.9-0.5-0.8-0.5-1.2-1.4-0.5-1-0.5-2.2 0-1.2 0.5-2.1 0.4-0.9 1.2-1.4 0.8-0.5 1.9-0.5 2.3 0 3 1.9l-0.6 0.3q-0.2-0.8-0.8-1.3-0.6-0.4-1.6-0.4-0.9 0-1.5 0.4-0.7 0.5-1.1 1.3-0.3 0.7-0.3 1.8 0 1.1 0.3 1.9 0.4 0.8 1 1.2 0.7 0.4 1.6 0.4 1 0 1.6-0.4 0.7-0.5 0.9-1.4zm8.3 1.5h5v0.5h-5.6v-7.8h5.4v0.5h-4.8v3.1h3.8v0.5h-3.8zm24.8-7.3q1.9 0 2.9 1 1 1 1 2.9 0 1.9-1 2.9-1 1.1-2.9 1.1h-2.4v-7.9zm0 7.3q1.6 0 2.4-0.9 0.9-0.9 0.9-2.5 0-1.6-0.9-2.5-0.8-0.9-2.4-0.9h-1.9v6.8zm12.4 0h4.9v0.6h-5.5v-7.9h5.3v0.5h-4.7v3.1h3.7v0.5h-3.7zm26.2-4.9l-1.6 5.5h-0.7l-2.5-7.9h0.7l2.1 7.4 2.1-7.4h0.7l2 7.4 2.2-7.4h0.6l-2.4 7.9h-0.7l-1.6-5.5-0.5-1.7zm13.8 4.9h5v0.6h-5.6v-7.9h5.4v0.6h-4.8v3h3.8v0.6h-3.8zm12.7 0.5v-7.8h2.7q1.3 0 2 0.5 0.6 0.5 0.6 1.5 0 0.7-0.4 1.2-0.3 0.5-1 0.6 0.7 0.2 1.2 0.7 0.4 0.5 0.4 1.2 0 1-0.7 1.6-0.7 0.5-2.1 0.5zm0.6-4.2h2.2q1.9 0 1.9-1.6 0-1.5-1.9-1.5h-2.2zm0 3.7h2.3q1 0 1.5-0.4 0.6-0.4 0.6-1.2 0-0.7-0.6-1.1-0.5-0.4-1.5-0.4h-2.3zm25.1-7.4q1.9 0 2.9 1 1 1 1 2.9 0 1.9-1 3-1 1-2.9 1h-2.5v-7.9zm0 7.4q1.6 0 2.5-0.9 0.8-0.9 0.8-2.6 0-1.6-0.8-2.4-0.9-0.9-2.5-0.9h-1.9v6.8zm12.4 0h5v0.5h-5.6v-7.9h5.4v0.6h-4.8v3h3.8v0.6h-3.8zm15.1-7.4q2.2 0 2.9 1.7l-0.5 0.4q-0.3-0.8-0.9-1.2-0.5-0.4-1.5-0.4-0.7 0-1.2 0.2-0.5 0.2-0.8 0.6-0.3 0.4-0.3 0.8 0 0.5 0.3 0.8 0.2 0.3 0.7 0.5 0.6 0.2 1.5 0.4 1.6 0.2 2.2 0.7 0.6 0.5 0.6 1.4 0 0.6-0.3 1.1-0.4 0.5-1.1 0.8-0.6 0.2-1.5 0.2-1.2 0-2.1-0.4-0.8-0.5-1.2-1.4l0.6-0.4q0.2 0.8 0.9 1.3 0.8 0.4 1.8 0.4 1 0 1.7-0.4 0.6-0.4 0.6-1.2 0-0.6-0.5-1-0.5-0.3-1.8-0.5-1.1-0.2-1.8-0.5-0.6-0.3-0.9-0.7-0.3-0.4-0.3-1 0-0.6 0.4-1.1 0.3-0.5 1-0.8 0.6-0.3 1.5-0.3zm10.9 0.1h0.6v7.8h-0.6zm12 4h3.2v3.9h-0.4l-0.1-1.4q-0.3 0.7-1 1.1-0.6 0.4-1.7 0.4-1 0-1.8-0.5-0.8-0.5-1.3-1.4-0.4-0.9-0.4-2.1 0-1.3 0.4-2.2 0.5-0.9 1.3-1.4 0.8-0.5 1.9-0.5 1.2 0 1.9 0.5 0.8 0.5 1.2 1.4l-0.6 0.3q-0.2-0.8-0.9-1.2-0.6-0.4-1.6-0.4-0.9 0-1.6 0.4-0.6 0.4-1 1.2-0.4 0.8-0.4 1.9 0 1.6 0.8 2.5 0.8 1 2.2 1 0.8 0 1.4-0.4 0.6-0.3 0.9-0.9 0.3-0.5 0.3-1.2v-0.4h-2.7zm17.3-4v7.8h-0.7l-4.2-6.1-0.6-1.1 0.1 1v6.2h-0.6v-7.8h0.7l4.2 6.1 0.6 1.1v-1-6.2z"/>
	</g>
</svg>