<svg version="1.2" xmlns="http://www.w3.org/2000/svg" viewBox="0 0 217 40" width="217" height="40">
	<title>agence-la-panthere-monochrome-svg</title>
	<style>
		.s0 { fill: #000000 } 
		.s1 { fill: #1d1d1b } 
	</style>
	<g id="409599fb-89aa-4ddd-9c19-604f11e9ffd0">
		<path id="Layer" fill-rule="evenodd" class="s0" d="m59.7 23.5q-0.2-0.7-0.2-1.8 0-1.2 0.8-6.9 0.8-5.7 0.8-9.2 0-0.8-0.2-2.2 2.1 0.1 2.6 0.9 0.3 0.5 0.4 1 0 0.4 0 1.4 0 0.9-0.8 7.2-0.9 6.3-0.9 9 0.1-0.1 0.4-0.1 5.9 0 8.8-0.8-0.2 1.6-1.1 2.5-0.9 0.8-2.2 0.8-0.4 0-2.3-0.1-2-0.2-3.9-0.2-1.8 0-3.7 0.3 0.4-1.2 1.5-1.8zm17.9-9q-0.8 1.4-1.2 2.8-0.5 1.4-0.5 2.7 0 1.3 0.6 2.2 0.6 0.9 1.7 0.9 1.5 0 2.8-1.6 1.4-1.7 2.1-4.1 0.7-2.4 0.7-4.4 0-2-0.2-3.3 0.7 0 0.9 0 2.3 0 2.3 2.3 0 0.5-0.7 4.2-0.6 3.7-0.6 5.9 0 2.2 0.8 3.9-1.7-0.3-2.5-1.5-0.8-1.1-0.8-3.3 0-0.4 0.2-1.5-0.8 2.6-2.6 4.2-1.9 1.5-3.6 1.5-1.8 0-2.9-1.3-1.1-1.3-1.1-3.7 0-2.4 0.9-4.7 0.9-2.2 2.7-3.9 1.7-1.6 3.9-1.6 1 0 2.1 0.4-1.6 0.4-2.9 1.4-1.3 1.1-2.1 2.5zm27.3-8.2v0.3q0 1-0.8 6.7-0.8 5.7-0.8 9.6 0 1.7 0.2 2.6-0.7 0.1-0.7 0.1-1.2 0-1.8-0.6-0.6-0.5-0.6-1.8 0-1.3 0.9-7.7 0.9-6.4 0.9-9.2 0-2.7-0.4-3.6 0.9 0.1 1.6 0.7 0.8 0.5 1.2 1.5 2-1.1 4.6-1.1 2.5 0 3.9 1.5 1.5 1.6 1.5 3.8 0 2.9-2.1 5.3-2.1 2.3-5.7 2.3-0.8 0-1.5-0.1l-0.1-0.9q1.8 0 3.2-0.5 1.3-0.6 2-1.5 1.4-1.7 1.4-4 0-1.7-1-2.8-1.1-1.2-3.1-1.2-1.3 0-2.8 0.6zm15.7 8.2q-0.8 1.4-1.2 2.8-0.4 1.4-0.4 2.7 0 1.3 0.6 2.2 0.5 0.9 1.6 0.9 1.5 0 2.9-1.6 1.3-1.7 2-4.1 0.7-2.4 0.7-4.4 0-2-0.1-3.3 0.6 0 0.8 0 2.3 0 2.3 2.3 0 0.5-0.7 4.2-0.6 3.7-0.6 5.9 0 2.2 0.8 3.9-1.7-0.3-2.5-1.5-0.7-1.1-0.7-3.3 0-0.4 0.1-1.5-0.8 2.6-2.6 4.2-1.8 1.5-3.6 1.5-1.8 0-2.9-1.3-1.1-1.3-1.1-3.7 0-2.4 0.9-4.7 0.9-2.2 2.7-3.9 1.8-1.6 3.9-1.6 1 0 2.1 0.4-1.6 0.4-2.9 1.4-1.3 1.1-2.1 2.5zm25.9-1.2q0 1.3-0.5 4.4-0.5 3.2-0.5 4.6 0 1.5 0.3 2.1 0.4 0.6 1.2 1.1-0.3 0-1 0-1.8 0-2.6-0.7-0.8-0.7-0.8-2.5 0-1 0.6-4 0.5-3.1 0.5-4.5 0-1.8-1.1-1.8-1.7 0-3.6 3.1-1.8 3-1.8 7.4 0 1.7 0.2 2.6-0.8 0.1-0.9 0.1-2.4 0-2.4-2.4 0-0.5 0.6-4.1 0.6-3.7 0.6-5.8 0-2.2-0.5-4 1.6 0.6 2.2 1.8 0.7 1.1 0.7 2.6 0 1.5-0.3 3.4 0.8-3 2.8-5.1 1.9-2.1 3.5-2.1 2.8 0 2.8 3.8zm13-3q0 1.1-0.4 1.5-0.4 0.5-1.3 0.5h-1.9q-0.1 0.7-0.6 3.3-0.9 5.1-0.9 7.6 0 2.6 0.4 3.5-1.6-0.6-2.2-1.8-0.7-1.1-0.7-2.8 0-1.6 0.2-3.1 0.2-1.5 0.6-3.4 0.4-2 0.5-3.2-1.5 0.2-3 0.8 0-0.4 0-0.7 0-1.3 0.8-1.8 0.9-0.4 2.5-0.4 0.2-2.1 0.2-3 0-1 0-1.6 0-0.6 0-0.9 1.2 0.2 1.9 1.1 0.7 0.9 0.7 2.5 0 0.8-0.1 1.9 2.3 0 3.3-0.8 0 0.4 0 0.8zm5.1 6.4q0.9-3 2.8-5.1 1.8-2.1 3.5-2.1 1.6 0 2.3 1 0.7 0.9 0.7 2.6 0 1.7-0.6 4.8-0.5 3.1-0.5 4.5 0 1.4 0.4 2 0.3 0.6 1.1 1.1-0.3 0-0.9 0-1.8 0-2.6-0.7-0.8-0.7-0.8-2.5 0-1 0.5-4 0.6-3.1 0.6-4.5 0-1.8-1.3-1.8-0.7 0-1.6 0.8-0.9 0.8-1.8 2.1-0.8 1.3-1.3 3.3-0.6 2-0.6 4 0 2 0.2 2.9-0.7 0.1-0.8 0.1-1.2 0-1.8-0.6-0.7-0.5-0.7-1.7 0-1.1 0.5-4.4 1.5-10.1 1.5-15.3 0-2.4-0.4-3.2 1.6 0.6 2.3 1.7 0.6 1.1 0.6 3 0 1.4-0.5 5.7-0.6 4.4-0.8 6.3zm24.4 5.2q-1.3 2-2.8 2.8-1.5 0.8-3.4 0.8-2 0-3.5-1.7-1.4-1.7-1.4-4.9 0-3.6 1.9-6.4 1-1.3 2.5-2.2 1.5-0.8 3.4-0.8 4 0 4 3.9 0 2.4-1.8 3.7-1.8 1.3-4.2 1.3-1.6 0-2.9-0.3 0 0.3 0 0.9 0 4.8 2.8 4.8 2.7 0 4.4-2.7 1 0.2 1 0.8zm-3.8-11q-1.7 0-2.8 1.8-1.1 1.9-1.5 4.4h0.7q1.5 0 2.5-0.4 1.1-0.4 1.7-1 1.1-1.3 1.1-2.8 0-0.9-0.5-1.5-0.4-0.5-1.2-0.5zm3.2-3.5q0 0.3-0.3 0.6-0.2 0.2-0.5 0.3-1-1.2-2.5-2.4-1.6-1.2-3.2-1.7 0.1-1.4 1.4-2.2 1.4 0.6 2.9 2.3 1.6 1.6 2.2 3.1zm8 8.9q1-3.5 2.4-5.2 1.4-1.6 2.5-1.6 1.2 0 1.8 0.8 0.6 0.9 0.6 2.3 0 1.3-0.7 2.3-0.7 1-2.1 1-0.4 0-0.6-0.1 0.9-1.3 0.9-2.7 0-0.9-0.8-0.9-0.6 0-1.3 0.7-0.7 0.7-1.4 2-0.6 1.3-1.1 3.4-0.4 2.1-0.4 4.5 0 0.3 0.1 2.3-0.7 0.1-0.8 0.1-2.4 0-2.4-2.4 0-0.5 0.6-4.1 0.6-3.7 0.6-5.8 0-2.2-0.5-4 1.6 0.6 2.2 1.8 0.7 1.1 0.7 2.7 0 1.5-0.3 2.9zm19.8 5.6q-1.2 2-2.7 2.8-1.5 0.8-3.5 0.8-1.9 0-3.4-1.7-1.5-1.7-1.5-4.9 0-3.6 2-6.4 0.9-1.3 2.5-2.2 1.5-0.8 3.3-0.8 4.1 0 4.1 3.9 0 2.4-1.8 3.7-1.9 1.3-4.3 1.3-1.6 0-2.9-0.3 0 0.3 0 0.9 0 4.8 2.9 4.8 2.6 0 4.3-2.7 1 0.2 1 0.8zm-3.8-11q-1.6 0-2.8 1.8-1.1 1.9-1.4 4.4h0.7q1.4 0 2.5-0.4 1.1-0.4 1.6-1 1.1-1.3 1.1-2.8 0-0.9-0.4-1.5-0.4-0.5-1.3-0.5z"/>
	</g>
	<g id="97221fff-9f5f-45e5-b2fa-fe4d6ef25df3">
		<path id="Layer" fill-rule="evenodd" class="s1" d="m21.8 18.5q0.1 0.1 0.1 0.2 0.1 0.2 0.1 0.3 0 0.1 0 0.3 0.1 0.2 0.1 0.5 0 0.3 0 0.6-0.1 0.2-0.1 0.5 0 0.3-0.1 0.6 0 0-0.1 0.1 0 0 0 0.1-0.1 0-0.2 0 0 0-0.1 0 0 0 0 0 0 0 0 0-0.1 0-0.1 0 0 0 0 0-0.1 0-0.2 0 0-0.1-0.1-0.2 0 0 0-0.1 0-0.1 0-0.2 0.1-0.2 0.1-0.4 0-0.2 0-0.4 0.1-0.2 0.1-0.4 0-0.2-0.1-0.4-0.2 0.3-0.5 0.5-0.3 0.2-0.6 0.4-0.3 0.2-0.7 0.2-0.3 0.1-0.7 0.1-0.1 0-0.2 0-0.2 0-0.3 0-0.1 0-0.2-0.1-0.1 0-0.2 0-0.7-0.2-1.2-0.6-0.5-0.4-0.8-1-0.3-0.5-0.4-1.2-0.1-0.6 0.1-1.3c0 0 0.1-0.1 0.1-0.1q-0.2-0.1-0.3-0.2-0.1 0-0.3-0.1-0.1-0.1-0.2-0.2-0.2 0-0.3-0.1-0.1-0.1-0.1-0.3-0.1-0.1 0-0.3 0.1-0.1 0.3-0.1 0.1-0.1 0.3 0 0.4 0.3 0.8 0.5 0.4 0.2 0.8 0.3 0.5 0.2 0.9 0.3 0.5 0.1 0.9 0.2 0.2 0 0.4 0 0.1 0 0.3 0.1 0.2 0 0.3 0.1 0.2 0 0.4 0 0.3 0.1 0.6 0.3 0.3 0.1 0.5 0.3 0.3 0.2 0.5 0.4 0.2 0.2 0.3 0.5 0.1 0.2 0.1 0.3zm-2 1.2q0.2-0.1 0.4-0.2 0.2-0.1 0.3-0.3 0.1-0.2 0.2-0.4 0.1-0.1 0.2-0.3-0.1-0.2-0.1-0.3-0.1-0.1-0.2-0.2-0.1 0-0.2-0.1-0.2-0.1-0.3-0.2c0 0.5-0.3 0.8-0.6 1.1-0.3 0.2-0.8 0.3-1.2 0.2-0.4 0-0.8-0.3-1-0.7-0.2-0.3-0.2-0.8-0.1-1.2q-0.1 0-0.2-0.1-0.2 0-0.3-0.1-0.1 0-0.2 0-0.1-0.1-0.2-0.1v0.1q-0.2 0.4-0.1 0.9 0.1 0.5 0.3 0.9 0.2 0.5 0.6 0.8 0.4 0.3 0.9 0.4 0.2 0.1 0.4 0.1 0.3 0 0.5 0 0.3 0 0.5-0.1 0.2-0.1 0.4-0.2zm-0.5-2.3q0 0 0 0 0 0 0 0zm0 0.1q-0.1-0.1-0.2-0.1-0.1 0-0.3 0-0.1-0.1-0.2-0.1-0.1 0-0.3 0h-0.3q0 0 0 0 0 0 0 0 0 0 0 0 0 0 0 0-0.1 0.3 0 0.6 0.2 0.2 0.5 0.3 0.2 0.1 0.5-0.1 0.2-0.1 0.3-0.4 0 0 0 0 0-0.1 0-0.1 0 0 0-0.1 0 0 0 0zm15.2 0.4q0 0.7-0.4 1.2-0.3 0.6-0.8 1-0.5 0.4-1.1 0.6-0.1 0-0.3 0.1-0.1 0-0.2 0-0.1 0-0.2 0-0.2 0-0.3 0-0.3 0-0.7 0-0.4-0.1-0.7-0.3-0.3-0.1-0.6-0.4-0.3-0.2-0.5-0.5 0 0.2 0 0.4 0 0.2 0 0.4 0 0.2 0 0.4 0.1 0.2 0.1 0.4 0 0.1 0 0.2 0 0.1-0.1 0.2 0 0.1-0.1 0.1-0.1 0.1-0.2 0.1-0.1 0-0.1-0.1-0.1 0-0.1 0-0.1 0-0.1-0.1-0.1 0-0.1-0.1 0-0.3-0.1-0.6 0-0.2 0-0.5-0.1-0.3 0-0.6 0-0.2 0-0.5 0-0.1 0-0.3 0.1-0.1 0.1-0.3 0-0.1 0.1-0.2 0-0.1 0.1-0.3 0.1-0.3 0.3-0.5 0.2-0.2 0.5-0.4 0.2-0.2 0.5-0.3 0.3-0.2 0.6-0.3h0.1q0.1 0 0.3-0.1 0.2 0 0.3 0 0.2-0.1 0.4-0.1 0.1 0 0.3 0 0.5-0.1 0.9-0.2 0.5-0.1 0.9-0.3 0.5-0.1 0.9-0.3 0.4-0.2 0.8-0.5 0.1-0.1 0.3 0 0.1 0 0.2 0.1 0.1 0.2 0.1 0.3 0 0.2-0.2 0.3-0.1 0.1-0.2 0.1-0.2 0.1-0.3 0.2-0.1 0.1-0.3 0.1-0.1 0.1-0.2 0.2c0 0 0 0.1 0 0.1q0.2 0.7 0.1 1.3zm-1.7 1.6q0.4-0.3 0.6-0.8 0.3-0.4 0.3-0.9 0.1-0.5-0.1-0.9v-0.1q-0.1 0.1-0.2 0.1-0.1 0-0.2 0.1-0.1 0-0.3 0-0.1 0.1-0.2 0.1 0.1 0.4 0 0.7 0 0.3-0.2 0.6-0.2 0.3-0.6 0.5-0.3 0.1-0.6 0.1-0.3 0-0.5-0.1-0.2 0-0.4-0.2-0.2-0.1-0.3-0.3-0.2-0.2-0.3-0.5 0 0 0 0 0 0 0-0.1 0 0 0 0 0 0 0-0.1-0.1 0.1-0.2 0.2-0.1 0.1-0.2 0.1-0.1 0.1-0.2 0.2-0.1 0.1-0.2 0.3 0.1 0.2 0.2 0.3 0.1 0.2 0.2 0.4 0.2 0.2 0.3 0.3 0.2 0.1 0.4 0.2 0.2 0.1 0.4 0.2 0.3 0.1 0.5 0.1 0.2 0 0.5 0 0.2 0 0.5-0.1 0.4-0.1 0.8-0.4zm-1.2-2.2q-0.2 0-0.3 0-0.1 0-0.2 0-0.2 0.1-0.3 0.1-0.1 0-0.2 0 0 0.2 0 0.4 0.1 0.2 0.2 0.3 0.1 0.1 0.3 0.1 0.2 0.1 0.4 0 0.1 0 0.2-0.1 0.1-0.1 0.2-0.2 0-0.1 0.1-0.3 0-0.1-0.1-0.3 0 0 0 0 0 0 0 0 0 0 0 0 0 0 0 0h-0.3z"/>
		<path id="Layer" class="s1" d="m23 17.8q-0.1 0-0.1 0.1-0.1 0.1-0.1 0.1-0.1 0-0.2 0-0.1 0-0.2 0 0 0-0.1-0.1 0 0-0.1-0.1 0-0.1 0-0.1c-0.1-1.1-1.3-1.3-2-1.4q-0.4 0-0.8-0.1-0.4-0.1-0.8-0.3-0.3-0.1-0.7-0.3-0.3-0.1-0.6-0.3-0.2-0.1-0.2-0.3-0.1-0.2 0-0.3 0.1-0.1 0.3-0.2 0.2 0 0.3 0.1 0.3 0.2 0.6 0.3 0.3 0.2 0.6 0.3 0.3 0.1 0.7 0.2 0.3 0.1 0.6 0.1c1.7 0.1 2.7 0.9 2.8 2.1q0 0.1 0 0.2zm4.9-0.1q0 0.1 0 0.1 0 0.1-0.1 0.1 0 0.1-0.1 0.1-0.1 0.1-0.2 0.1-0.1 0-0.1-0.1-0.1 0-0.2-0.1 0 0 0-0.1-0.1-0.1-0.1-0.2c0.1-1.2 1.1-2 2.8-2.1q0.3 0 0.7-0.1 0.3-0.1 0.6-0.2 0.3-0.1 0.6-0.3 0.3-0.1 0.6-0.3 0.2-0.1 0.3-0.1 0.2 0.1 0.3 0.2 0.1 0.1 0.1 0.3-0.1 0.2-0.2 0.3-0.3 0.2-0.7 0.3-0.3 0.2-0.7 0.3-0.4 0.2-0.8 0.3-0.3 0.1-0.7 0.1c-0.7 0.1-2 0.3-2.1 1.4zm-12.9-6.3q-0.1-0.1-0.1-0.3 0-0.2 0.1-0.3 0.2-0.1 0.3-0.1 0.2 0 0.3 0.2l1.7 2.1q0.1 0.1 0.1 0.3 0 0.2-0.1 0.3-0.2 0.1-0.3 0.1-0.2-0.1-0.3-0.2zm2.8-1q-0.1-0.2 0-0.3 0-0.2 0.2-0.2 0.2-0.1 0.3 0 0.2 0 0.2 0.2l0.8 2q0 0.1 0 0.2 0 0-0.1 0.1 0 0.1-0.1 0.2-0.1 0-0.2 0-0.1 0-0.1 0-0.1 0-0.1-0.1-0.1 0-0.1-0.1-0.1 0-0.1-0.1zm2.8 2q-0.1 0-0.2-0.1 0 0 0-0.1-0.1-0.1-0.1-0.2l0.2-1.7q0-0.1 0-0.1 0-0.1 0.1-0.2 0.1 0 0.1 0 0.1-0.1 0.2 0 0.1 0 0.2 0 0 0 0.1 0.1 0 0.1 0.1 0.1 0 0.1 0 0.2l-0.2 1.7q0 0.1 0 0.1 0 0.1-0.1 0.2 0 0-0.1 0-0.1 0.1-0.2 0.1-0.1 0-0.1-0.1z"/>
		<path id="Layer" fill-rule="evenodd" class="s1" d="m49.3 26.3q0.2 0.1 0.3 0.2 0.1 0.1 0 0.3 0 0.2-0.2 0.2-0.1 0.1-0.3 0.1c-2.2-0.7-8.1-0.5-11.4-0.4h-0.1l-0.4 0.4c4.1 0.1 7 0.4 8.4 0.9q0.1 0 0.2 0.2 0 0.1 0 0.3-0.1 0.1-0.2 0.2-0.2 0.1-0.3 0c-1.4-0.5-4.5-0.8-8.9-0.8q-0.3 0.3-0.6 0.5c3.4 0.2 9.1 0.6 11.3 1.6q0.1 0.1 0.2 0.2 0 0.2 0 0.3-0.1 0.2-0.2 0.2-0.2 0.1-0.3 0c-2.3-1-8.9-1.4-12.1-1.6l-0.2 0.1-0.4 0.3c3.5 0.4 5.8 0.8 7 1.3q0.2 0.1 0.2 0.2 0.1 0.2 0 0.4 0 0.1-0.2 0.2-0.2 0-0.3 0c-1.1-0.5-3.5-0.9-6.9-1.3q0 0.4 0 0.8 0 0.3 0 0.7-0.1 0.4-0.2 0.7 0 0.4-0.1 0.8c-0.9 2.3-2.1 2.9-3.5 3q-0.1 0.1-0.2 0.2 0 0.2-0.1 0.3-0.1 0.1-0.3 0.2-0.1 0.1-0.2 0.2 0.3 0.3 0.5 0.6 0.3 0.3 0.5 0.6 0.2 0.3 0.4 0.6 0.3 0.3 0.4 0.7 0.1 0.1 0 0.3-0.1 0.1-0.2 0.2-0.2 0-0.3 0-0.2-0.1-0.2-0.3c-0.2-0.3-0.6-1-1.8-2.2q-0.1 0.1-0.3 0.1-0.1 0.1-0.2 0.1-0.2 0.1-0.3 0.1-0.1 0.1-0.3 0.1 0.1 0.2 0.2 0.5 0.1 0.2 0.1 0.4 0.1 0.2 0.1 0.5 0.1 0.2 0.1 0.5 0 0 0 0.1-0.1 0.1-0.1 0.1-0.1 0.1-0.1 0.1-0.1 0.1-0.2 0.1-0.1 0-0.1 0-0.1-0.1-0.2-0.1 0-0.1-0.1-0.2 0 0 0-0.1 0-0.2-0.1-0.4 0-0.3-0.1-0.5 0-0.2-0.1-0.4-0.1-0.2-0.2-0.4-0.4 0.1-0.9 0.1-0.4 0-0.8 0-0.5 0-0.9 0-0.5 0-0.9-0.1-0.1 0.2-0.2 0.4 0 0.2-0.1 0.4-0.1 0.2-0.1 0.5-0.1 0.2-0.1 0.4 0 0.1 0 0.1-0.1 0.1-0.1 0.2-0.1 0-0.1 0.1-0.1 0-0.2 0-0.1 0-0.1-0.1-0.1 0-0.2-0.1 0 0 0-0.1-0.1-0.1-0.1-0.1 0.1-0.3 0.1-0.5 0-0.3 0.1-0.5 0.1-0.2 0.1-0.4 0.1-0.3 0.2-0.5-0.1 0-0.3-0.1-0.1 0-0.2-0.1-0.2 0-0.3-0.1-0.1 0-0.3-0.1c-1.1 1.2-1.6 1.9-1.7 2.2q-0.1 0.2-0.2 0.3-0.2 0-0.3 0-0.2-0.1-0.3-0.2 0-0.2 0-0.3 0.2-0.4 0.4-0.7 0.2-0.3 0.4-0.6 0.3-0.3 0.5-0.6 0.3-0.3 0.5-0.5-0.1-0.1-0.2-0.3-0.1-0.1-0.2-0.2-0.1-0.1-0.2-0.2-0.1-0.2-0.2-0.3c-1.4-0.1-2.6-0.7-3.4-3q-0.1-0.4-0.2-0.8-0.1-0.3-0.1-0.7-0.1-0.4-0.1-0.7 0-0.4 0-0.8c-3.4 0.3-5.7 0.8-6.9 1.2q-0.1 0.1-0.3 0-0.1 0-0.2-0.2 0-0.1 0-0.3 0.1-0.1 0.2-0.2 1.8-0.8 6.9-1.3h-0.1l-0.5-0.4c-3.2 0.2-9.7 0.6-11.9 1.6q-0.2 0.1-0.3 0-0.2-0.1-0.2-0.2-0.1-0.2-0.1-0.3 0.1-0.2 0.2-0.2c2.2-1 7.8-1.5 11.3-1.6q-0.3-0.3-0.5-0.5c-4.5 0-7.6 0.3-9 0.8q-0.1 0-0.3 0-0.1-0.1-0.2-0.2 0-0.2 0-0.4 0.1-0.1 0.3-0.2c1.4-0.5 4.2-0.8 8.3-0.8l-0.3-0.4h-0.2c-3.3-0.2-9.2-0.3-11.4 0.4q-0.1 0-0.3-0.1-0.1 0-0.2-0.2 0-0.2 0-0.3 0.1-0.2 0.3-0.2c2.1-0.7 7-0.6 11-0.4-2.6-3.4-2.7-6.7-2.2-8.2 0.4-1.2 1-4.1 0.2-5.3q0 0-0.1-0.1-0.1-0.1-0.1-0.1-0.1-0.1-0.2-0.1-0.1-0.1-0.2-0.1c-1-0.1-1.1-1.1-1.3-1.9q0-0.1 0-0.2 0-0.1 0-0.2 0-0.1 0-0.2 0-0.1 0-0.2-0.1-0.1-0.2-0.2-0.1-0.1-0.1-0.2-0.1-0.1-0.2-0.2-0.1-0.1-0.2-0.1-0.3-0.3-0.5-0.5-0.3-0.3-0.5-0.6-0.2-0.3-0.4-0.6-0.2-0.3-0.3-0.6c-0.9-2.1 0.3-3.2 0.3-3.2q0 0 0.1 0 0 0 0-0.1 0 0 0 0 0.1 0 0.1 0 0.4-0.1 0.7-0.1 0.4 0 0.7 0.1 0.3 0 0.6 0.1 0.4 0.1 0.6 0.3 0.2 0.1 0.4 0.2 0.2 0.1 0.4 0.2 0.2 0 0.3 0.1 0.2 0.1 0.4 0.2 0.5 0.3 1.1 0.3 0.6 0.1 1.2 0 0.6-0.1 1.1-0.3 0.5-0.3 0.9-0.7c2.4-2.3 4.1-3 10.8-3 6.7 0 8.4 0.7 10.8 3q0.4 0.4 0.9 0.7 0.6 0.2 1.1 0.3 0.6 0.1 1.2 0 0.6 0 1.1-0.3c0.7-0.3 1.1-0.5 1.5-0.7q0.3-0.2 0.6-0.3 0.3-0.1 0.6-0.1 0.4-0.1 0.7-0.1 0.3 0 0.7 0.1h0.1q0 0 0 0 0 0 0 0 0 0.1 0.1 0.1 0 0 0 0c0 0 1.2 1.1 0.3 3.2q-0.1 0.3-0.3 0.6-0.2 0.3-0.4 0.6-0.2 0.3-0.4 0.6-0.3 0.2-0.6 0.5-0.1 0-0.2 0.1-0.1 0.1-0.1 0.2-0.1 0.1-0.2 0.2-0.1 0.1-0.1 0.2-0.1 0.1-0.1 0.2 0 0.1 0 0.2-0.1 0.1-0.1 0.2 0 0.1 0 0.2c-0.2 0.8-0.3 1.8-1.3 1.9q-0.1 0-0.2 0.1-0.1 0-0.1 0-0.1 0.1-0.2 0.2-0.1 0-0.1 0.1c-0.7 1.2-0.2 4.1 0.2 5.2 0.5 1.6 0.5 4.9-2.2 8.2 4-0.1 8.9-0.2 11 0.5zm-22.6 10.1c0.1 0.1 0.3 0.4 0.5 0.9q0.3-0.1 0.5-0.2 0.3-0.1 0.5-0.2 0.3-0.1 0.5-0.3 0.2-0.2 0.4-0.4h-1.3q-0.4 0-0.8-0.1-0.5-0.1-0.8-0.3-0.4-0.2-0.7-0.6-0.3-0.3-0.5-0.7-0.2 0.4-0.5 0.7-0.3 0.4-0.7 0.6-0.4 0.2-0.8 0.3-0.4 0.1-0.9 0.1h-1.3q0.2 0.2 0.5 0.4 0.2 0.2 0.4 0.3 0.3 0.2 0.5 0.3 0.3 0.1 0.6 0.1c0.2-0.5 0.4-0.9 0.4-0.9q0.1-0.1 0.3-0.2 0.1 0 0.3 0.1 0.1 0.1 0.2 0.2 0 0.2-0.1 0.3c0 0-0.1 0.3-0.3 0.7q0.3 0 0.7 0 0.3 0.1 0.7 0.1 0.3 0 0.7-0.1 0.3 0 0.7 0-0.2-0.4-0.3-0.7-0.1-0.1-0.1-0.3 0.1-0.1 0.2-0.2 0.1-0.1 0.3-0.1 0.2 0.1 0.3 0.2zm9.6-9.7l-1.2 0.1h-0.1q-0.1 0-0.3-0.1-0.1-0.1-0.1-0.3 0-0.1 0.1-0.3 0.1-0.1 0.3-0.1c0 0 0.9 0 2.1-0.1 3-3.3 3-6.6 2.6-8 0-0.1-1.3-4.1-0.1-5.9q0.1-0.2 0.2-0.3 0.1-0.2 0.3-0.3 0.1-0.1 0.3-0.1 0.2-0.1 0.4-0.1c0.3 0 0.4-0.5 0.5-1.2q0-0.2 0-0.3 0.1-0.1 0.1-0.2 0-0.2 0.1-0.3 0-0.1 0-0.2 0.1-0.2 0.2-0.3 0.1-0.2 0.2-0.3 0.1-0.1 0.3-0.3 0.1-0.1 0.2-0.2 0.3-0.2 0.5-0.4 0.2-0.2 0.4-0.5 0.2-0.2 0.3-0.5 0.2-0.3 0.3-0.5c0.5-1.3 0.1-2 0-2.2q-0.2-0.1-0.3 0-0.2 0-0.3 0-0.2 0-0.3 0.1-0.1 0.1-0.2 0.1c-0.1 0.1-4.1 3-5.9 3h-0.2c1.6 1.2 2.6 2.6 2.6 4.1q0 0.2-0.1 0.3-0.2 0.1-0.3 0.1-0.2 0-0.3-0.1-0.1-0.1-0.1-0.3c0-1.5-1.4-3.2-3.6-4.2q-0.3-0.1-0.6-0.2-0.3 0-0.7-0.1-0.3-0.1-0.6-0.3-0.2-0.1-0.5-0.2-0.2-0.1-0.2-0.3-0.1-0.1 0-0.3 0.1-0.1 0.3-0.2 0.1 0 0.3 0.1 0.4 0.2 0.9 0.4 0.5 0.1 1 0.2 0.6 0.1 1.1 0.2 0.5 0 1 0c0.7 0 2-0.6 3.2-1.4q-0.2 0.1-0.5 0.2-0.2 0.1-0.4 0.1-0.3 0.1-0.5 0.1-0.2 0-0.5 0-0.4 0-0.8-0.1-0.5-0.1-0.9-0.2-0.4-0.2-0.7-0.5-0.4-0.2-0.7-0.5c-2.1-2.1-3.5-2.8-10.2-2.8-6.7 0-8.1 0.7-10.2 2.8q-0.5 0.5-1.1 0.8-0.6 0.3-1.3 0.4-0.7 0.2-1.3 0.1-0.7-0.1-1.3-0.4c1.2 0.7 2.4 1.4 3.1 1.4q0.5 0 1.1 0 0.5-0.1 1-0.2 0.5-0.1 1-0.3 0.5-0.1 1-0.4 0.1 0 0.3 0 0.2 0.1 0.2 0.2 0.1 0.1 0.1 0.3-0.1 0.2-0.2 0.2-0.3 0.2-0.6 0.3-0.3 0.2-0.6 0.3-0.3 0.1-0.6 0.1-0.3 0.1-0.6 0.2c-2.2 1-3.6 2.7-3.6 4.2q0 0.1-0.1 0.3-0.1 0.1-0.3 0.1-0.2 0-0.3-0.1-0.1-0.2-0.1-0.3c0-1.5 0.9-2.9 2.6-4.1h-0.2c-1.8 0-5.8-2.9-5.8-3q-0.2-0.1-0.3-0.1-0.1-0.1-0.3-0.1-0.1-0.1-0.3-0.1-0.1 0-0.3 0c-0.1 0.3-0.5 1 0 2.2q0.1 0.3 0.3 0.6 0.1 0.3 0.3 0.5 0.2 0.3 0.4 0.5 0.2 0.2 0.5 0.4 0.1 0.1 0.3 0.2 0.1 0.1 0.2 0.3 0.1 0.1 0.2 0.3 0.1 0.1 0.2 0.3 0 0.1 0 0.2 0.1 0.1 0.1 0.2 0 0.2 0.1 0.3 0 0.1 0 0.2c0.1 0.7 0.2 1.2 0.5 1.3q0.2 0 0.4 0.1 0.2 0 0.3 0.1 0.2 0.1 0.3 0.3 0.1 0.1 0.2 0.2c1.2 1.8-0.1 5.9-0.1 5.9-0.5 1.5-0.4 4.7 2.5 8 1.3 0.1 2.1 0.2 2.2 0.2q0.2 0 0.3 0.1 0.1 0.1 0.1 0.3 0 0.2-0.1 0.3-0.2 0.1-0.3 0.1h-0.1l-1.2-0.1q0.2 0.2 0.4 0.4 0 0 0 0 0 0 0 0 0 0 0 0 0.1 0 0.1 0.1 0.6 0.5 1.3 1h0.5c-0.1-0.9-0.2-1.7-0.5-2q-0.2-0.1-0.2-0.3 0-0.1 0.1-0.3 0.1-0.1 0.3-0.1 0.1 0 0.3 0.1c0.6 0.4 0.8 1.4 0.9 2.6h0.3q0.2 0 0.3 0.1 0.1 0.1 0.1 0.3 0 0.1-0.1 0.2-0.1 0.2-0.3 0.2h-0.3v0.4h0.1q0.1-0.1 0.3 0 0.1 0.2 0.1 0.3 0 0.2-0.1 0.3-0.1 0.1-0.3 0.2h-0.1q0 0.3 0 0.6 0.1 0.4 0.1 0.7 0 0.4 0.1 0.7 0.1 0.3 0.1 0.7c1 2.6 2.2 2.5 4.2 2.5h0.9q0.4 0 0.9-0.2 0.4-0.2 0.8-0.5 0.3-0.4 0.5-0.8 0.2-0.5 0.2-0.9-0.1-0.1-0.1-0.2-0.1 0-0.2-0.1-0.1 0-0.2-0.1 0 0-0.1-0.1c-0.6-0.3-1.4-0.8-1.1-1.5 0.1-0.2 0.1-0.3-0.9-0.9l-0.3-0.3q-0.1-0.1-0.3-0.2-0.1-0.1-0.2-0.2-0.1-0.2-0.1-0.3-0.1-0.2-0.1-0.3 0-0.2 0.1-0.3 0-0.1 0.1-0.2 0-0.2 0.1-0.2 0.1-0.1 0.2-0.2 0.2-0.1 0.3 0 0.2 0 0.3 0.1 0 0.2 0 0.3 0 0.2-0.1 0.3c-0.1 0-0.2 0.1-0.2 0.2 0 0 0.1 0.2 0.4 0.4l0.3 0.2c0.9 0.6 1.6 1.1 1.2 2q0.1 0 0.2 0.1 0 0.1 0.1 0.1 0.1 0.1 0.2 0.2 0.1 0 0.2 0.1 0.1 0 0.2 0.1 0 0 0.1 0.1 0.1 0 0.2 0.1 0 0 0.1 0.1 0.1-0.1 0.2-0.1 0-0.1 0.1-0.1 0.1-0.1 0.2-0.1 0-0.1 0.1-0.1c0.3-0.2 0.7-0.4 0.7-0.6-0.3-0.8 0.3-1.3 1.2-1.9l0.4-0.2c0.2-0.2 0.3-0.4 0.3-0.4 0-0.1-0.1-0.2-0.1-0.2q-0.1-0.1-0.1-0.1-0.1-0.1-0.1-0.2 0 0 0-0.1 0-0.1 0-0.2 0.1 0 0.2-0.1 0 0 0.1 0 0.1 0 0.1 0 0.1 0 0.2 0 0.1 0.1 0.2 0.2 0.1 0.1 0.1 0.2 0.1 0.1 0.1 0.2 0.1 0.1 0.1 0.3 0 0.1-0.1 0.3 0 0.2-0.1 0.3-0.1 0.1-0.2 0.3-0.2 0.1-0.3 0.2l-0.3 0.2c-1 0.6-1 0.7-0.9 1 0.3 0.6-0.5 1.1-1.1 1.5q-0.1 0-0.1 0.1-0.1 0-0.2 0.1-0.1 0-0.2 0.1 0 0.1-0.1 0.1 0 0.5 0.2 0.9 0.2 0.5 0.5 0.8 0.4 0.4 0.8 0.5 0.5 0.2 0.9 0.2h2.1c1.3 0 2.2-0.5 3-2.5q0-0.3 0.1-0.7 0.1-0.3 0.1-0.6 0-0.4 0.1-0.7 0-0.4 0-0.7h-0.2q0 0-0.1-0.1-0.1 0-0.1 0-0.1-0.1-0.1-0.2 0-0.1 0-0.1 0-0.1 0-0.2 0.1-0.1 0.1-0.1 0.1-0.1 0.2-0.1 0 0 0.1 0h0.1v-0.4h-0.3q-0.1 0-0.1 0-0.1-0.1-0.2-0.1 0-0.1-0.1-0.2 0 0 0-0.1 0-0.1 0.1-0.2 0 0 0-0.1 0.1-0.1 0.2-0.1 0.1 0 0.1 0h0.4c0.1-1.2 0.3-2.2 0.8-2.6q0.2-0.1 0.3-0.1 0.2 0 0.3 0.2 0.1 0.1 0.1 0.3 0 0.1-0.2 0.2c-0.3 0.3-0.5 1.1-0.5 2h0.4q0.7-0.5 1.4-1l0.1-0.1c0.1-0.1 0.3-0.2 0.4-0.4z"/>
		<path id="Layer" class="s1" d="m32.9 13.6q-0.1 0-0.2 0-0.1-0.1-0.2-0.2 0-0.1 0-0.2 0-0.1 0.1-0.2l1.7-2.1q0.1-0.2 0.3-0.2 0.2 0 0.3 0.1 0.1 0.1 0.1 0.3 0 0.2-0.1 0.3l-1.7 2.1q0 0 0 0.1-0.1 0-0.1 0-0.1 0-0.1 0 0 0.1-0.1 0.1zm-2.1-1.2q-0.1-0.1-0.1-0.2 0 0 0-0.1 0-0.1 0-0.2l0.7-2q0.1-0.1 0.3-0.2 0.1 0 0.3 0 0.1 0.1 0.2 0.2 0.1 0.2 0 0.3l-0.8 2q0 0.1 0 0.1-0.1 0.1-0.1 0.1-0.1 0-0.1 0.1-0.1 0-0.1 0-0.1 0-0.1 0 0 0 0 0 0 0 0 0-0.1 0-0.1 0-0.1-0.1-0.1-0.1zm-1.7-0.1q-0.1 0-0.1-0.1-0.1 0-0.1-0.1-0.1-0.1-0.1-0.2l-0.1-1.7q0-0.1 0.1-0.3 0.1-0.1 0.3-0.1 0.1 0 0.3 0.1 0.1 0.1 0.1 0.3l0.1 1.7q0 0 0 0.1 0 0.1-0.1 0.2 0 0-0.1 0.1-0.1 0-0.1 0-0.1 0-0.2 0z"/>
		<path id="Layer" class="s1" d="m18.6 31.6c-0.3 0-0.6-0.3-0.6-0.6 0-0.3 0.3-0.5 0.6-0.5 0.3 0 0.5 0.2 0.5 0.5 0 0.3-0.2 0.6-0.5 0.6z"/>
		<path id="Layer" class="s1" d="m18.8 33.5c-0.3 0-0.6-0.2-0.6-0.6 0-0.3 0.3-0.5 0.6-0.5 0.3 0 0.5 0.2 0.5 0.5 0 0.4-0.2 0.6-0.5 0.6z"/>
		<path id="Layer" class="s1" d="m20.2 34.8c-0.3 0-0.5-0.3-0.5-0.6 0-0.3 0.2-0.6 0.5-0.6 0.4 0 0.6 0.3 0.6 0.6 0 0.3-0.2 0.6-0.6 0.6z"/>
		<path id="Layer" class="s1" d="m20.7 32.8c-0.3 0-0.5-0.2-0.5-0.6 0-0.3 0.2-0.5 0.5-0.5 0.3 0 0.6 0.2 0.6 0.5 0 0.4-0.3 0.6-0.6 0.6z"/>
		<path id="Layer" class="s1" d="m22.3 33.8c-0.3 0-0.6-0.2-0.6-0.6 0-0.3 0.3-0.5 0.6-0.5 0.3 0 0.6 0.2 0.6 0.5 0 0.4-0.3 0.6-0.6 0.6z"/>
		<path id="Layer" class="s1" d="m31.4 31.6c-0.4 0-0.6-0.3-0.6-0.6 0-0.3 0.2-0.5 0.6-0.5 0.3 0 0.5 0.2 0.5 0.5 0 0.3-0.2 0.6-0.5 0.6z"/>
		<path id="Layer" class="s1" d="m31.2 33.5c-0.3 0-0.6-0.2-0.6-0.6 0-0.3 0.3-0.5 0.6-0.5 0.3 0 0.5 0.2 0.5 0.5 0 0.4-0.2 0.6-0.5 0.6z"/>
		<path id="Layer" class="s1" d="m29.7 34.8c-0.3 0-0.6-0.3-0.6-0.6 0-0.3 0.3-0.6 0.6-0.6 0.3 0 0.6 0.3 0.6 0.6 0 0.3-0.3 0.6-0.6 0.6z"/>
		<path id="Layer" class="s1" d="m29.2 32.8c-0.3 0-0.6-0.2-0.6-0.6 0-0.3 0.3-0.5 0.6-0.5 0.3 0 0.6 0.2 0.6 0.5 0 0.4-0.3 0.6-0.6 0.6z"/>
		<path id="Layer" class="s1" d="m27.6 33.8c-0.3 0-0.5-0.2-0.5-0.6 0-0.3 0.2-0.5 0.5-0.5 0.3 0 0.6 0.2 0.6 0.5 0 0.4-0.3 0.6-0.6 0.6z"/>
		<path id="Layer" class="s1" d="m27 21.8q0.1 0 0.1 0.1 0.1 0 0.1 0.1 0 0.1 0 0.1-0.1 0.6-0.2 1.1-0.2 0.5-0.5 1-0.2 0.4-0.6 0.9-0.3 0.4-0.7 0.7 0 0-0.1 0.1 0 0 0 0-0.1 0-0.1 0 0 0-0.1 0 0 0 0 0-0.1 0-0.1 0 0 0 0 0-0.1-0.1-0.1-0.1-0.4-0.3-0.8-0.7-0.3-0.5-0.5-0.9-0.3-0.5-0.5-1-0.1-0.5-0.2-1.1 0-0.1 0.1-0.3 0.1-0.1 0.3-0.1 0.1 0 0.3 0.1 0.1 0.1 0.1 0.3 0 0.4 0.2 0.8 0.1 0.4 0.3 0.7 0.2 0.4 0.4 0.8 0.3 0.3 0.6 0.6 0.3-0.3 0.5-0.6 0.3-0.4 0.4-0.8 0.2-0.3 0.4-0.7 0.1-0.4 0.1-0.8 0-0.1 0.1-0.2 0-0.1 0.1-0.1 0-0.1 0.1-0.1 0.1 0 0.2 0 0.1 0 0.1 0.1zm-7.1 1.5q0.1 0 0.1 0.1 0 0.1 0 0.2 0 0.1-0.1 0.1-0.1 0.3-0.4 0.7c-0.8 1.2-1.3 2.2-0.3 3.3q0.1 0.1 0 0.2 0 0.2-0.1 0.3-0.1 0.1-0.3 0.1-0.1 0-0.2-0.1c-1.6-1.7-0.5-3.3 0.3-4.3q0.2-0.3 0.3-0.6 0.1-0.1 0.1-0.1 0.1-0.1 0.2-0.1 0.1 0 0.1 0 0.1 0 0.2 0.1 0.1 0 0.1 0.1zm11.2 0.6c0.7 1 1.8 2.6 0.3 4.3q-0.1 0.1-0.3 0.1-0.2 0.1-0.3-0.1-0.2-0.1-0.2-0.3 0-0.1 0.2-0.3c1-1.1 0.5-2-0.4-3.2q-0.2-0.4-0.4-0.7-0.1-0.1 0-0.3 0-0.2 0.2-0.2 0.1-0.1 0.3-0.1 0.1 0.1 0.2 0.2 0.2 0.3 0.4 0.6zm-10.6 5q0 0.2 0.1 0.5 0.1 0.2 0.3 0.4 0.1 0.2 0.4 0.3 0.1 0.1 0.1 0.2 0.1 0.2 0 0.3-0.1 0.2-0.2 0.2-0.2 0.1-0.3 0-0.4-0.2-0.6-0.5-0.3-0.3-0.4-0.6-0.2-0.4-0.2-0.8 0-0.4 0.1-0.7 0.1-0.2 0.2-0.3 0.2 0 0.3 0 0.2 0.1 0.3 0.2 0 0.2 0 0.3-0.1 0.3-0.1 0.5zm8.6 1.8q-0.2 0.1-0.3 0.1-0.2-0.1-0.3-0.2-0.1-0.2 0-0.3 0-0.2 0.2-0.3 0.2-0.1 0.3-0.3 0.2-0.1 0.3-0.4 0.1-0.2 0.1-0.4 0-0.3-0.1-0.5 0-0.1 0-0.3 0.1-0.1 0.3-0.2 0.1 0 0.3 0 0.1 0.1 0.2 0.3 0.1 0.3 0.1 0.7 0 0.4-0.2 0.7-0.1 0.4-0.4 0.7-0.2 0.3-0.5 0.5zm-2.6-2.3q0.1-0.1 0.3-0.1 0.2 0 0.3 0.1 0.1 0.1 0.1 0.3 0 0.1-0.1 0.3-0.4 0.4-0.9 0.7-0.6 0.3-1.2 0.3-0.7 0-1.2-0.3-0.6-0.3-1-0.7-0.1-0.2-0.1-0.3 0-0.2 0.1-0.3 0.2-0.1 0.3-0.1 0.2 0 0.3 0.1 0.3 0.4 0.7 0.5 0.4 0.2 0.9 0.2 0.4 0 0.8-0.2 0.4-0.1 0.7-0.5zm-9.6-4.8q0 0.2-0.1 0.3-0.1 0.1-0.3 0.1-0.1 0-0.3-0.1-0.1-0.1-0.1-0.3c0-0.4-0.6-1.6-2-2.3q-0.2-0.1-0.2-0.3-0.1-0.2 0-0.3 0.1-0.2 0.3-0.2 0.1 0 0.3 0c1.5 0.9 2.4 2.3 2.4 3.1zm19.2-2.7q0 0 0 0.1-0.1 0.1-0.1 0.2-0.1 0-0.1 0.1c-1.4 0.7-2.1 1.9-2.1 2.3q0 0.2-0.1 0.3-0.1 0.1-0.3 0.1-0.1 0-0.2-0.1-0.2-0.1-0.2-0.3c0-0.8 1-2.2 2.5-3.1q0.1 0 0.2 0 0 0 0.1 0 0.1 0 0.1 0.1 0.1 0 0.1 0.1 0.1 0.1 0.1 0.2z"/>
	</g>
	<g id="54c8ca41-f910-4170-8f82-6d26474b6f31">
		<path id="Layer" fill-rule="evenodd" class="s0" d="m61.4 30.7l-0.5-1.3h-1.9l-0.4 1.3h-0.4l1.6-4h0.4l1.5 4zm-2.2-1.6h1.6l-0.6-1.7-0.2-0.4-0.1 0.4zm7.7-0.4h1.6v1.9h-0.3v-0.7q-0.1 0.4-0.5 0.6-0.3 0.2-0.8 0.2-0.6 0-1-0.3-0.4-0.2-0.6-0.7-0.2-0.4-0.2-1 0-0.6 0.2-1.1 0.2-0.5 0.6-0.7 0.4-0.3 1-0.3 0.6 0 1 0.3 0.3 0.2 0.5 0.7l-0.2 0.1q-0.2-0.4-0.5-0.6-0.3-0.2-0.8-0.2-0.5 0-0.8 0.2-0.3 0.2-0.5 0.6-0.2 0.4-0.2 1 0 0.8 0.4 1.2 0.4 0.5 1.1 0.5 0.4 0 0.7-0.2 0.3-0.1 0.4-0.4 0.2-0.3 0.2-0.6v-0.2h-1.3zm5.9 1.6h2.5v0.3h-2.8v-3.9h2.7v0.3h-2.4v1.5h1.9v0.3h-1.9zm9.3-3.7v3.9h-0.3l-2.1-3.1-0.3-0.5v0.5 3.1h-0.3v-3.9h0.4l2.1 3.1 0.3 0.5-0.1-0.5v-3.1zm7.4 2.9q-0.2 0.5-0.6 0.8-0.4 0.3-1 0.3-0.5 0-0.9-0.3-0.4-0.2-0.7-0.7-0.2-0.4-0.2-1 0-0.7 0.2-1.1 0.3-0.5 0.7-0.7 0.4-0.3 0.9-0.3 1.2 0 1.5 1l-0.3 0.1q-0.1-0.4-0.4-0.6-0.3-0.2-0.8-0.2-0.4 0-0.8 0.2-0.3 0.2-0.5 0.6-0.2 0.4-0.2 1 0 0.5 0.2 0.9 0.2 0.4 0.5 0.6 0.4 0.2 0.8 0.2 0.5 0 0.8-0.2 0.3-0.3 0.5-0.7zm4.1 0.7h2.5v0.3h-2.8v-3.9h2.7v0.3h-2.4v1.5h1.9v0.3h-1.9zm12.4-3.7q1 0 1.5 0.5 0.5 0.5 0.5 1.4 0 1-0.5 1.5-0.5 0.5-1.5 0.5h-1.2v-3.9zm0 3.7q0.8 0 1.2-0.5 0.4-0.4 0.4-1.3 0-0.8-0.4-1.2-0.4-0.4-1.2-0.4h-1v3.4zm6.2 0h2.5v0.2h-2.8v-3.9h2.7v0.3h-2.4v1.5h1.9v0.3h-1.9zm13.1-2.5l-0.8 2.7h-0.3l-1.2-3.9h0.3l1.1 3.7 1-3.7h0.3l1.1 3.7 1.1-3.7h0.3l-1.3 3.9h-0.3l-0.8-2.7-0.2-0.9zm6.9 2.5h2.4v0.3h-2.7v-3.9h2.7v0.2h-2.4v1.6h1.9v0.2h-1.9zm6.3 0.3v-3.9h1.4q0.6 0 0.9 0.3 0.3 0.2 0.3 0.7 0 0.4-0.1 0.6-0.2 0.2-0.6 0.3 0.4 0.1 0.6 0.3 0.3 0.3 0.3 0.7 0 0.5-0.4 0.7-0.4 0.3-1 0.3zm0.3-2.1h1.1q0.9 0 0.9-0.8 0-0.7-0.9-0.7h-1.1zm0 1.8h1.1q0.5 0 0.8-0.2 0.2-0.2 0.2-0.6 0-0.4-0.2-0.6-0.3-0.2-0.8-0.2h-1.1zm12.5-3.6q0.9 0 1.4 0.5 0.5 0.5 0.5 1.4 0 1-0.5 1.5-0.5 0.5-1.4 0.5h-1.3v-3.9zm0.1 3.6q0.8 0 1.2-0.4 0.4-0.5 0.4-1.3 0-0.8-0.4-1.2-0.4-0.5-1.2-0.5h-1v3.4zm6.2 0h2.5v0.3h-2.8v-3.9h2.7v0.2h-2.4v1.6h1.9v0.2h-1.9zm7.5-3.7q1.1 0 1.5 0.9l-0.2 0.2q-0.2-0.4-0.5-0.6-0.3-0.2-0.8-0.2-0.3 0-0.6 0.1-0.2 0.1-0.3 0.3-0.2 0.2-0.2 0.4 0 0.2 0.1 0.4 0.1 0.1 0.4 0.2 0.3 0.1 0.8 0.2 0.7 0.2 1.1 0.4 0.3 0.3 0.3 0.7 0 0.3-0.2 0.6-0.2 0.2-0.5 0.3-0.4 0.2-0.8 0.2-0.6 0-1-0.3-0.5-0.2-0.6-0.7l0.2-0.2q0.2 0.5 0.5 0.7 0.4 0.2 0.9 0.2 0.5 0 0.8-0.2 0.4-0.2 0.4-0.6 0-0.3-0.3-0.5-0.3-0.2-0.9-0.3-0.6-0.1-0.9-0.2-0.3-0.1-0.5-0.3-0.1-0.2-0.1-0.6 0-0.3 0.2-0.5 0.2-0.3 0.5-0.4 0.3-0.2 0.7-0.2zm5.5 0.1h0.3v3.9h-0.3zm6 2h1.6v1.9h-0.2v-0.6q-0.2 0.3-0.5 0.5-0.4 0.2-0.9 0.2-0.5 0-0.9-0.2-0.4-0.3-0.6-0.8-0.3-0.4-0.3-1 0-0.6 0.3-1.1 0.2-0.5 0.6-0.7 0.4-0.2 0.9-0.2 0.6 0 1 0.2 0.4 0.2 0.6 0.7l-0.3 0.2q-0.1-0.4-0.4-0.7-0.4-0.2-0.9-0.2-0.4 0-0.7 0.2-0.4 0.3-0.6 0.6-0.1 0.4-0.1 1 0 0.8 0.4 1.3 0.3 0.4 1 0.4 0.5 0 0.8-0.1 0.3-0.2 0.4-0.5 0.1-0.3 0.1-0.6v-0.2h-1.3zm8.7-2v3.9h-0.4l-2.1-3.1-0.3-0.5v0.5 3.1h-0.3v-3.9h0.4l2.1 3.1 0.3 0.5v-0.5-3.1z"/>
	</g>
</svg>